<svg version="1.1" id="Layer_1" xmlns="http://www.w3.org/2000/svg" xmlns:xlink="http://www.w3.org/1999/xlink" x="0px" y="0px"
	 width="100%" viewBox="0 0 206 170" enable-background="new 0 0 206 170" xml:space="preserve">
<path fill="#06091F" opacity="1.000000" stroke="none" 
	d="
M144.000000,171.000000 
	C96.031601,171.000000 48.563198,171.000000 1.047399,171.000000 
	C1.047399,114.402664 1.047399,57.805279 1.047399,1.103945 
	C69.551552,1.103945 138.103317,1.103945 206.827545,1.103945 
	C206.827545,57.666233 206.827545,114.333076 206.827545,171.000000 
	C186.138901,171.000000 165.319458,171.000000 144.000000,171.000000 
M179.717789,91.717346 
	C179.421906,89.418030 179.126022,87.118706 178.854645,85.009911 
	C163.981857,85.009911 149.877289,85.075867 135.775116,84.921501 
	C134.121994,84.903412 132.482162,83.671524 130.975876,82.072525 
	C130.983887,69.171455 131.023453,56.270229 130.958084,43.369534 
	C130.950317,41.838512 130.368958,40.310402 130.072952,38.072075 
	C129.076248,37.356812 128.079544,36.641552 126.602135,35.198570 
	C116.043274,35.187386 105.484421,35.176197 94.164627,35.358212 
	C90.580902,36.235764 87.028206,37.277977 83.407661,37.960072 
	C72.412849,40.031445 64.380836,49.687885 63.923420,60.791103 
	C63.547718,69.910759 65.315056,78.024429 73.256676,84.686485 
	C60.912544,84.686485 49.531464,85.056870 38.187805,84.564735 
	C29.706413,84.196777 29.727905,83.701393 30.305901,92.716171 
	C31.609360,92.927460 32.913754,93.327530 34.216129,93.321045 
	C48.377316,93.250580 62.538094,93.084709 76.699265,93.046104 
	C78.198776,93.042015 79.700058,93.682922 80.548561,94.260178 
	C77.032150,99.558685 72.900787,104.557526 70.139412,110.223976 
	C65.686333,119.361893 61.973766,128.876343 58.268642,138.356888 
	C56.230892,143.570999 58.598373,145.997070 64.068504,144.945862 
	C66.779060,144.424973 69.515083,144.036606 72.151291,143.602798 
	C77.762299,130.680191 83.196815,117.581306 89.218094,104.757927 
	C90.518578,101.988312 93.625870,98.896332 96.433800,98.242943 
	C102.768684,96.768867 109.436775,96.726746 116.006325,97.021500 
	C116.004623,111.141808 115.955963,125.262482 116.067955,139.381882 
	C116.080246,140.931641 117.014740,142.474106 118.005714,144.630859 
	C122.064636,144.544632 126.420525,146.823425 130.766663,142.641479 
	C130.788483,126.433022 130.810303,110.224564 130.989563,93.548988 
	C130.989563,93.548988 131.092026,93.066818 132.012146,93.009140 
	C145.990631,93.052650 159.969208,93.131325 173.947479,93.094025 
	C175.644516,93.089493 177.339859,92.460213 179.717789,91.717346 
z"/>
<path fill="#FE9303" opacity="1.000000" stroke="none" 
	d="
M115.969299,96.102036 
	C109.436775,96.726746 102.768684,96.768867 96.433800,98.242943 
	C93.625870,98.896332 90.518578,101.988312 89.218094,104.757927 
	C83.196815,117.581306 77.762299,130.680191 72.151291,143.602798 
	C69.515083,144.036606 66.779060,144.424973 64.068504,144.945862 
	C58.598373,145.997070 56.230892,143.570999 58.268642,138.356888 
	C61.973766,128.876343 65.686333,119.361893 70.139412,110.223976 
	C72.900787,104.557526 77.032150,99.558685 80.956863,93.841812 
	C79.605835,92.952484 77.849243,92.084930 76.086746,92.072746 
	C60.780643,91.966896 45.473480,92.014580 30.166632,92.016586 
	C29.727905,83.701393 29.706413,84.196777 38.187805,84.564735 
	C49.531464,85.056870 60.912544,84.686485 73.256676,84.686485 
	C65.315056,78.024429 63.547718,69.910759 63.923420,60.791103 
	C64.380836,49.687885 72.412849,40.031445 83.407661,37.960072 
	C87.028206,37.277977 90.580902,36.235764 94.901672,35.486504 
	C106.120102,35.718632 116.601471,35.822464 127.082848,35.926292 
	C128.079544,36.641552 129.076248,37.356812 130.052719,38.910267 
	C130.022263,51.552059 129.962677,63.355980 130.040085,75.159004 
	C130.057251,77.775070 130.558060,80.387970 130.836166,83.002327 
	C132.482162,83.671524 134.121994,84.903412 135.775116,84.921501 
	C149.877289,85.075867 163.981857,85.009911 178.854645,85.009911 
	C179.126022,87.118706 179.421906,89.418030 178.909454,91.887703 
	C164.171692,92.041451 150.242065,91.987656 136.313034,92.055283 
	C134.571091,92.063736 132.832291,92.713951 131.092026,93.066818 
	C131.092026,93.066818 130.989563,93.548988 130.732880,94.152176 
	C130.318192,96.401009 130.026352,98.046394 130.023132,99.692329 
	C129.994720,114.168709 130.017700,128.645187 130.025467,143.121628 
	C126.420525,146.823425 122.064636,144.544632 117.657715,143.860855 
	C117.203041,129.500504 117.137260,115.909592 116.946335,102.320435 
	C116.917145,100.243462 116.309441,98.174629 115.969299,96.102036 
M80.994995,72.844650 
	C82.623268,77.789200 86.401718,80.410767 91.054939,81.989365 
	C93.537941,82.831726 96.064537,83.860397 98.632095,84.073112 
	C103.981430,84.516281 109.371071,84.472839 114.744148,84.629356 
	C115.162758,80.630775 115.587440,76.632805 115.992172,72.632820 
	C116.041969,72.140739 115.985191,71.637878 115.334572,70.610367 
	C104.447815,70.423904 93.561256,70.203293 82.673798,70.141571 
	C82.064560,70.138107 81.447899,71.445473 80.994995,72.844650 
M116.002373,54.527084 
	C116.002373,52.095104 116.002373,49.663124 116.002373,48.024055 
	C108.182205,48.024055 101.001137,47.384708 93.987175,48.193886 
	C86.096680,49.104187 80.095894,54.398872 80.411118,62.693047 
	C92.151199,62.693047 103.890045,62.693047 116.002609,62.693047 
	C116.002609,60.083626 116.002609,57.782963 116.002373,54.527084 
z"/>
<path fill="#F79D3E" opacity="1.000000" stroke="none" 
	d="
M30.236267,92.366379 
	C45.473480,92.014580 60.780643,91.966896 76.086746,92.072746 
	C77.849243,92.084930 79.605835,92.952484 81.282837,93.724030 
	C79.700058,93.682922 78.198776,93.042015 76.699265,93.046104 
	C62.538094,93.084709 48.377316,93.250580 34.216129,93.321045 
	C32.913754,93.327530 31.609360,92.927460 30.236267,92.366379 
z"/>
<path fill="#FE9A10" opacity="1.000000" stroke="none" 
	d="
M130.396057,142.881561 
	C130.017700,128.645187 129.994720,114.168709 130.023132,99.692329 
	C130.026352,98.046394 130.318192,96.401009 130.654175,94.385742 
	C130.810303,110.224564 130.788483,126.433022 130.396057,142.881561 
z"/>
<path fill="#F79D3E" opacity="1.000000" stroke="none" 
	d="
M131.552094,93.037979 
	C132.832291,92.713951 134.571091,92.063736 136.313034,92.055283 
	C150.242065,91.987656 164.171692,92.041451 178.568573,92.089264 
	C177.339859,92.460213 175.644516,93.089493 173.947479,93.094025 
	C159.969208,93.131325 145.990631,93.052650 131.552094,93.037979 
z"/>
<path fill="#F2A04C" opacity="1.000000" stroke="none" 
	d="
M115.987816,96.561768 
	C116.309441,98.174629 116.917145,100.243462 116.946335,102.320435 
	C117.137260,115.909592 117.203041,129.500504 117.415604,143.555389 
	C117.014740,142.474106 116.080246,140.931641 116.067955,139.381882 
	C115.955963,125.262482 116.004623,111.141808 115.987816,96.561768 
z"/>
<path fill="#FE9A10" opacity="1.000000" stroke="none" 
	d="
M130.906021,82.537430 
	C130.558060,80.387970 130.057251,77.775070 130.040085,75.159004 
	C129.962677,63.355980 130.022263,51.552059 130.042984,39.264702 
	C130.368958,40.310402 130.950317,41.838512 130.958084,43.369534 
	C131.023453,56.270229 130.983887,69.171455 130.906021,82.537430 
z"/>
<path fill="#F79D3E" opacity="1.000000" stroke="none" 
	d="
M126.842491,35.562431 
	C116.601471,35.822464 106.120102,35.718632 95.282143,35.389908 
	C105.484421,35.176197 116.043274,35.187386 126.842491,35.562431 
z"/>
<path fill="#080B20" opacity="1.000000" stroke="none" 
	d="
M116.002487,55.004692 
	C116.002609,57.782963 116.002609,60.083626 116.002609,62.693047 
	C103.890045,62.693047 92.151199,62.693047 80.411118,62.693047 
	C80.095894,54.398872 86.096680,49.104187 93.987175,48.193886 
	C101.001137,47.384708 108.182205,48.024055 116.002373,48.024055 
	C116.002373,49.663124 116.002373,52.095104 116.002487,55.004692 
z"/>
<path fill="#07091F" opacity="1.000000" stroke="none" 
	d="
M115.977806,71.140015 
	C115.985191,71.637878 116.041969,72.140739 115.992172,72.632820 
	C115.587440,76.632805 115.162758,80.630775 114.744148,84.629349 
	C109.371071,84.472839 103.981430,84.516281 98.632095,84.073112 
	C96.064537,83.860397 93.537941,82.831726 91.054939,81.989365 
	C86.401718,80.410767 82.623268,77.789200 81.129471,72.092285 
	C92.835228,71.273285 104.406517,71.206650 115.977806,71.140015 
z"/>
<path fill="#F29C41" opacity="1.000000" stroke="none" 
	d="
M115.656189,70.875191 
	C104.406517,71.206650 92.835228,71.273285 81.049316,71.741325 
	C81.447899,71.445473 82.064560,70.138107 82.673798,70.141571 
	C93.561256,70.203293 104.447815,70.423904 115.656189,70.875191 
z"/>
</svg>