<svg version="1.1" id="Layer_1" xmlns="http://www.w3.org/2000/svg" xmlns:xlink="http://www.w3.org/1999/xlink" x="0px" y="0px"
	 width="100%" viewBox="0 0 574 264" enable-background="new 0 0 574 264" xml:space="preserve">
<path fill="#0F031E" opacity="1.000000" stroke="none" 
	d="
M435.000000,265.000000 
	C290.000031,265.000000 145.500031,265.000000 1.000039,265.000000 
	C1.000026,177.000031 1.000026,89.000053 1.000013,1.000062 
	C192.333298,1.000042 383.666595,1.000042 574.999878,1.000021 
	C574.999939,88.999939 574.999939,176.999878 575.000000,264.999908 
	C528.500000,265.000000 482.000000,265.000000 435.000000,265.000000 
M162.287277,77.499870 
	C162.287277,86.438049 162.287277,95.376228 162.287277,105.022530 
	C169.112335,105.022530 175.403336,105.263916 181.667908,104.960205 
	C189.162445,104.596855 197.020447,105.027924 204.036133,102.878967 
	C218.836517,98.345497 224.328949,82.819901 215.813522,70.084885 
	C213.551376,66.701752 209.441284,64.554283 206.169571,61.831085 
	C211.414795,57.703636 214.663528,52.290276 213.548019,45.480492 
	C212.179428,37.125702 204.570297,31.204882 195.735352,31.054178 
	C186.079971,30.889484 176.417542,31.113810 166.763412,30.915154 
	C163.239197,30.842636 162.183548,32.087463 162.223160,35.537266 
	C162.379944,49.189911 162.287384,62.845417 162.287277,77.499870 
M425.267395,162.998383 
	C421.509186,162.998383 417.750977,162.998383 414.171051,162.998383 
	C414.171051,188.046783 414.171051,212.431229 414.171051,236.720963 
	C417.602905,236.720963 420.681274,236.720963 424.359680,236.720963 
	C424.359680,216.666733 424.359680,196.889511 424.359680,177.112289 
	C425.644623,178.013611 425.782654,179.097107 426.261047,180.000336 
	C435.565094,197.567047 444.868958,215.134277 454.308075,232.628433 
	C455.223297,234.324661 456.862061,236.518799 458.449677,236.785156 
	C462.131561,237.402878 465.987732,236.981720 469.943542,236.981720 
	C469.943542,212.175064 469.943542,187.793213 469.943542,163.354431 
	C466.508606,163.354431 463.316589,163.354431 459.566437,163.354431 
	C459.566437,181.495804 459.566437,199.282654 459.566437,217.069504 
	C458.304749,216.198837 458.080261,215.135498 457.591522,214.212036 
	C449.664215,199.233521 441.853882,184.188950 433.612946,169.384293 
	C432.107666,166.680099 431.438263,161.826843 425.267395,162.998383 
M273.899780,189.941513 
	C273.604462,185.060898 274.384521,179.791534 272.790070,175.380508 
	C269.462494,166.174805 261.133606,163.523117 252.221710,163.079041 
	C244.575272,162.698013 236.888580,163.178024 229.233078,162.903839 
	C225.210876,162.759766 224.182236,164.217468 224.212036,168.085129 
	C224.377670,189.579468 224.286255,211.075775 224.305115,232.571381 
	C224.306229,233.848923 224.501175,235.126297 224.630005,236.697174 
	C228.489075,236.697174 232.057892,236.697174 236.176346,236.697174 
	C236.176346,227.392883 236.176346,218.172012 236.176346,208.868042 
	C239.714935,208.868042 242.776672,208.494949 245.689392,208.993164 
	C247.792801,209.352921 250.247955,210.394943 251.597885,211.953873 
	C257.922241,219.257462 263.867462,226.888031 270.082062,234.289352 
	C271.089233,235.488846 272.711700,236.761215 274.151764,236.894104 
	C278.046143,237.253510 281.995544,237.017212 287.523987,237.017212 
	C285.387695,234.283463 284.184570,232.621826 282.857361,231.066071 
	C276.306213,223.386948 269.643860,215.800125 263.243439,207.998032 
	C262.389130,206.956635 262.400269,203.556870 262.688385,203.468887 
	C269.083679,201.516113 271.000702,195.780563 273.899780,189.941513 
M29.987888,74.500000 
	C29.987888,84.592949 29.987888,94.685890 29.987888,104.535965 
	C34.277725,104.535965 37.984985,104.535965 41.986954,104.535965 
	C41.986954,95.121216 41.986954,86.184013 41.986954,77.086929 
	C48.136581,76.727486 53.763390,75.694344 58.098286,81.805313 
	C63.212383,89.014732 69.196053,95.610771 74.875977,102.411568 
	C75.722870,103.425575 76.931137,104.757935 78.039650,104.824760 
	C82.579597,105.098480 87.145660,104.939034 92.748657,104.939034 
	C83.383385,93.970337 74.775764,83.889008 65.881821,73.472336 
	C66.980659,72.635963 68.040466,71.760536 69.167511,70.982529 
	C76.852142,65.677765 80.175072,57.979958 79.525284,49.081013 
	C78.873383,40.153179 70.618797,31.932243 61.457184,31.286478 
	C51.090878,30.555796 40.633434,31.117970 29.987888,31.117970 
	C29.987888,45.570477 29.987888,59.535240 29.987888,74.500000 
M38.545406,162.992462 
	C35.775074,162.992462 33.004742,162.992462 30.287170,162.992462 
	C30.287170,187.980423 30.287170,212.374863 30.287170,236.617584 
	C46.976925,236.617584 63.370647,236.617584 79.593597,236.617584 
	C79.593597,233.294113 79.593597,230.365692 79.593597,226.951279 
	C66.873901,226.951279 54.460579,226.951279 42.368263,226.951279 
	C42.368263,218.065887 42.368263,209.695496 42.368263,200.888550 
	C55.173561,200.888550 67.429932,200.888550 79.636978,200.888550 
	C80.326958,191.061111 80.326958,191.061081 71.315155,191.061066 
	C61.549255,191.061050 51.783356,191.061066 42.124405,191.061066 
	C42.124405,184.716614 42.124405,178.984955 42.124405,172.771255 
	C54.835701,172.771255 67.246437,172.771255 79.653526,172.771255 
	C79.653526,169.351349 79.653526,166.426178 79.653526,162.992462 
	C66.113060,162.992462 52.824684,162.992462 38.545406,162.992462 
M358.545410,162.992462 
	C355.775055,162.992462 353.004669,162.992462 350.287231,162.992462 
	C350.287231,187.980530 350.287231,212.374969 350.287231,236.617554 
	C366.976624,236.617554 383.369934,236.617554 399.593567,236.617554 
	C399.593567,233.291138 399.593567,230.365005 399.593567,226.951218 
	C386.873199,226.951218 374.460693,226.951218 362.368286,226.951218 
	C362.368286,218.068817 362.368286,209.700317 362.368286,200.888519 
	C375.173279,200.888519 387.428528,200.888519 399.637024,200.888519 
	C400.326904,191.061111 400.326904,191.061096 391.315125,191.061066 
	C381.549225,191.061050 371.783325,191.061066 362.124420,191.061066 
	C362.124420,184.716614 362.124420,178.984955 362.124420,172.771240 
	C374.835724,172.771240 387.246460,172.771240 399.653534,172.771240 
	C399.653534,169.351334 399.653534,166.426178 399.653534,162.992462 
	C386.112671,162.992462 372.824493,162.992462 358.545410,162.992462 
M496.545532,237.008942 
	C510.296967,237.008942 524.048401,237.008942 537.579346,237.008942 
	C537.579346,233.264832 537.579346,230.337936 537.579346,226.925934 
	C524.843445,226.925934 512.430115,226.925934 500.385071,226.925934 
	C500.385071,218.043854 500.385071,209.675507 500.385071,200.866058 
	C513.205688,200.866058 525.459167,200.866058 537.526245,200.866058 
	C537.526245,197.467560 537.526245,194.558136 537.526245,191.045715 
	C524.763245,191.045715 512.373413,191.045715 500.140747,191.045715 
	C500.140747,184.689133 500.140747,178.957809 500.140747,172.743881 
	C512.868713,172.743881 525.279053,172.743881 537.637634,172.743881 
	C537.637634,169.321686 537.637634,166.395462 537.637634,163.307266 
	C520.981079,163.307266 504.600098,163.307266 488.306519,163.307266 
	C488.306519,188.018173 488.306519,212.413025 488.306519,237.008942 
	C490.932526,237.008942 493.247498,237.008942 496.545532,237.008942 
M450.312622,33.898167 
	C450.079071,35.372494 450.092651,36.941242 449.571320,38.305611 
	C446.500183,46.343010 443.211945,54.297882 440.173553,62.347263 
	C436.155701,72.991547 432.228882,83.671761 428.418671,94.391884 
	C427.244263,97.696106 426.579010,101.181282 425.672668,104.613869 
	C430.256348,104.613869 433.991028,104.613869 437.013824,104.613869 
	C439.437805,98.236046 441.565063,92.401459 443.937042,86.668114 
	C444.271423,85.859955 445.794800,85.088493 446.778351,85.075165 
	C455.755676,84.953583 464.735321,85.003738 473.675934,85.003738 
	C476.076202,91.716187 478.378784,98.155441 480.762329,104.821075 
	C484.367584,104.821075 488.152618,104.821075 492.907257,104.821075 
	C490.383789,97.052574 488.233765,89.645119 485.578888,82.423279 
	C479.880157,66.921761 473.443359,51.671177 468.345734,35.980942 
	C466.715057,30.961727 464.281189,30.702457 460.568573,31.038059 
	C457.251282,31.337923 453.358643,29.393410 450.312622,33.898167 
M172.342758,207.814972 
	C171.883286,203.157089 173.549973,200.969376 178.665192,201.154144 
	C187.652466,201.478745 196.660156,201.277893 205.658783,201.218552 
	C207.589767,201.205826 209.518539,200.858917 211.336639,200.677124 
	C212.204239,193.308594 211.876389,190.461899 203.336319,190.976974 
	C196.196411,191.407578 189.009888,191.065323 181.844009,191.065323 
	C178.758011,191.065323 175.672012,191.065323 172.515610,191.065323 
	C172.515610,184.680801 172.515610,179.240585 172.515610,173.344452 
	C174.430435,173.225128 176.205597,173.024597 177.981384,173.018799 
	C187.646881,172.987305 197.315979,172.854462 206.976486,173.076065 
	C210.932205,173.166809 211.700089,171.429855 211.709671,167.962006 
	C211.719498,164.401443 210.718857,162.844910 206.867188,162.926682 
	C197.039383,163.135406 187.204163,162.996185 177.371918,162.996185 
	C172.269043,162.996170 167.166153,162.996185 162.160400,162.996185 
	C162.160400,187.993088 162.160400,212.389221 162.160400,237.005020 
	C177.475235,237.005020 192.454712,236.905045 207.431168,237.073212 
	C211.321106,237.116882 211.744751,235.204269 211.675415,232.106979 
	C211.608414,229.113358 211.289185,226.898987 207.424347,226.959946 
	C198.594193,227.099213 189.760315,227.003815 180.927948,227.003738 
	C178.165207,227.003708 175.402451,227.003723 172.342758,227.003723 
	C172.342758,220.363190 172.342758,214.559692 172.342758,207.814972 
M242.342758,48.578041 
	C242.342758,46.289845 242.342758,44.001648 242.342758,41.322704 
	C244.522385,41.201920 246.309357,41.022621 248.096863,41.017254 
	C257.595551,40.988728 267.098602,40.838394 276.591125,41.081776 
	C280.627106,41.185261 281.769135,39.699589 281.725739,35.845829 
	C281.684296,32.164787 280.470978,30.881397 276.753174,30.930166 
	C263.757080,31.100651 250.757370,30.996181 237.759048,30.996172 
	C235.832809,30.996170 233.906586,30.996172 232.202988,30.996172 
	C232.202988,56.068024 232.202988,80.464378 232.202988,105.004929 
	C247.569595,105.004929 262.557648,104.905769 277.542786,105.071053 
	C281.548065,105.115234 281.686401,102.973419 281.671875,99.996521 
	C281.656830,96.913887 281.102539,94.896965 277.313019,94.954109 
	C267.483215,95.102348 257.649597,95.022331 247.817657,94.986504 
	C246.054794,94.980080 244.292755,94.749268 242.342926,94.608528 
	C242.342926,87.606491 242.410400,81.125366 242.317490,74.646545 
	C242.262161,70.787651 243.809341,69.109047 247.832901,69.187202 
	C257.161499,69.368408 266.496307,69.281082 275.827972,69.214775 
	C277.735199,69.201225 279.639679,68.802879 281.433014,68.594955 
	C282.103607,60.436253 281.447418,58.622227 273.169281,58.983330 
	C264.686523,59.353355 256.174866,59.091496 247.676239,59.043781 
	C245.924866,59.033947 244.175049,58.748619 242.342758,58.582870 
	C242.342758,55.178299 242.342758,52.351963 242.342758,48.578041 
M110.343796,92.093452 
	C110.343460,86.427124 110.493263,80.755524 110.294792,75.096146 
	C110.138878,70.650177 111.977432,69.064995 116.385818,69.175484 
	C125.546165,69.405060 134.716568,69.283043 143.882126,69.213432 
	C145.776718,69.199043 147.668259,68.783394 149.440109,68.567436 
	C150.092316,60.406761 149.433731,58.624565 141.113693,58.984215 
	C132.630066,59.350937 124.118095,59.092331 115.618912,59.043041 
	C113.872253,59.032913 112.127243,58.737679 110.596451,58.594032 
	C110.596451,52.517357 110.596451,47.074970 110.596451,41.273880 
	C112.622459,41.176392 114.415215,41.019985 116.208359,41.015499 
	C126.041023,40.990902 135.874969,40.916008 145.705887,41.048866 
	C149.354996,41.098179 149.755493,39.061550 149.642105,36.232136 
	C149.541504,33.721966 150.015976,30.983952 146.139343,30.989159 
	C130.851044,31.009695 115.562714,30.997581 100.059967,30.997581 
	C100.059967,55.815472 100.059967,80.212013 100.059967,105.005211 
	C115.085464,105.005211 129.878021,104.923485 144.668457,105.065132 
	C148.178574,105.098740 149.856781,104.313332 149.724121,100.367264 
	C149.602570,96.751678 148.871445,94.832443 144.685532,94.930244 
	C134.858185,95.159851 125.020164,95.093529 115.190704,94.914368 
	C113.567131,94.884773 111.965019,93.677322 110.343796,92.093452 
M308.578705,47.089718 
	C323.458801,33.783905 337.623322,40.349895 351.871399,49.970982 
	C351.871399,44.340260 351.871399,40.036819 351.871399,34.615028 
	C345.837463,33.285217 339.580383,32.277287 333.551331,30.497099 
	C322.401550,27.204931 312.739349,30.413103 303.768188,36.704185 
	C296.871429,41.540577 293.803131,48.543995 291.527740,56.675579 
	C288.806915,66.399025 289.673279,75.742538 292.496674,84.666092 
	C296.784302,98.217339 309.513428,106.331123 323.781494,106.938263 
	C333.763550,107.363014 342.760681,104.197548 351.741150,100.366982 
	C351.741150,95.982841 351.741150,91.577141 351.741150,86.968239 
	C350.632935,87.116417 349.553864,86.927094 349.055450,87.378654 
	C343.730621,92.202820 337.476196,94.386246 330.437164,95.850182 
	C323.113037,97.373413 317.230164,95.336411 311.871429,91.269569 
	C299.859039,82.153160 299.048218,61.258358 308.578705,47.089718 
M376.375366,85.895088 
	C374.922363,80.328362 372.720245,74.824295 372.247681,69.175545 
	C371.852386,64.450172 372.811310,59.322094 374.392181,54.799343 
	C376.093964,49.930786 379.038757,45.465591 384.069000,42.923992 
	C395.786469,37.003555 406.383667,39.674969 416.516144,46.832012 
	C417.986542,47.870621 419.753937,48.488728 421.854553,49.536098 
	C421.854553,44.200905 421.854553,39.898331 421.854553,34.578899 
	C415.896057,33.284210 409.821625,32.203480 403.879120,30.625637 
	C389.416840,26.785629 377.147797,30.975048 368.182892,42.210140 
	C357.948639,55.035957 357.639709,70.294189 362.852295,85.148636 
	C368.334991,100.772789 381.097656,107.326088 396.907898,106.674026 
	C405.328613,106.326721 413.638733,103.297729 421.873840,101.506317 
	C421.873840,95.964088 421.873840,91.660141 421.873840,86.455818 
	C419.709534,87.597961 417.759277,88.185188 416.399139,89.421616 
	C410.586243,94.705650 403.138550,96.380432 396.028900,96.463867 
	C388.553864,96.551598 381.473358,93.249954 376.375366,85.895088 
M92.500244,187.906052 
	C92.861221,188.246017 93.408180,188.519714 93.556351,188.935501 
	C99.254463,204.925903 104.916061,220.929291 110.577713,236.917419 
	C115.710541,236.917419 120.524574,236.917419 125.597939,236.917419 
	C134.496262,212.481476 143.394592,188.045517 152.444824,163.192413 
	C147.924362,163.192413 144.134857,163.192413 140.267746,163.192413 
	C133.170120,183.092468 126.100403,202.914276 118.742668,223.543625 
	C117.636131,220.973312 116.683205,219.030975 115.950996,217.008728 
	C113.654373,210.665833 111.489006,204.275330 109.183220,197.935852 
	C106.181137,189.682022 102.600334,181.601913 100.167526,173.187149 
	C97.160110,162.784882 97.128822,162.346481 86.344284,163.047485 
	C85.685867,163.090286 85.035812,163.261749 84.160034,163.411224 
	C84.382668,164.403580 84.499092,165.360443 84.812019,166.248001 
	C87.266212,173.208618 89.758049,180.155975 92.500244,187.906052 
M294.070770,192.499985 
	C294.070770,207.242523 294.070770,221.985077 294.070770,236.674393 
	C310.449890,236.674393 326.170227,236.674393 341.638397,236.674393 
	C341.638397,233.263824 341.638397,230.195374 341.638397,226.725708 
	C329.539001,226.725708 317.805298,226.725708 305.656250,226.725708 
	C305.656250,205.252655 305.656250,184.198227 305.656250,163.311066 
	C301.623016,163.311066 298.022552,163.311066 294.070770,163.311066 
	C294.070770,172.917404 294.070770,182.208694 294.070770,192.499985 
z"/>
<path fill="#F3F2F3" opacity="1.000000" stroke="none" 
	d="
M162.287292,76.999863 
	C162.287384,62.845417 162.379944,49.189911 162.223160,35.537266 
	C162.183548,32.087463 163.239197,30.842636 166.763412,30.915154 
	C176.417542,31.113810 186.079971,30.889484 195.735352,31.054178 
	C204.570297,31.204882 212.179428,37.125702 213.548019,45.480492 
	C214.663528,52.290276 211.414795,57.703636 206.169571,61.831085 
	C209.441284,64.554283 213.551376,66.701752 215.813522,70.084885 
	C224.328949,82.819901 218.836517,98.345497 204.036133,102.878967 
	C197.020447,105.027924 189.162445,104.596855 181.667908,104.960205 
	C175.403336,105.263916 169.112335,105.022530 162.287277,105.022530 
	C162.287277,95.376228 162.287277,86.438049 162.287292,76.999863 
M174.025009,80.516098 
	C174.025009,85.273079 174.025009,90.030052 174.025009,96.004524 
	C183.200806,94.953148 191.749512,94.236084 200.201370,92.904320 
	C205.078583,92.135811 207.786148,84.782684 207.776825,80.960930 
	C207.767548,77.156250 203.067856,71.306061 199.535324,71.175354 
	C191.153610,70.865227 182.752625,71.075584 174.025009,71.075584 
	C174.025009,73.922729 174.025009,76.722260 174.025009,80.516098 
M183.070221,60.533558 
	C186.649017,60.032009 190.231384,59.554371 193.805603,59.022007 
	C197.195953,58.517029 201.596481,53.771248 201.313202,49.702698 
	C201.127609,47.037304 200.933853,43.284325 196.584488,42.813698 
	C189.215530,42.016319 181.864700,41.051289 174.008575,40.096233 
	C174.008575,45.026539 173.988373,48.646278 174.012466,52.265720 
	C174.076996,61.962475 173.140823,60.399494 183.070221,60.533558 
z"/>
<path fill="#FCFCFC" opacity="1.000000" stroke="none" 
	d="
M425.726349,162.998383 
	C431.438263,161.826843 432.107666,166.680099 433.612946,169.384293 
	C441.853882,184.188950 449.664215,199.233521 457.591522,214.212036 
	C458.080261,215.135498 458.304749,216.198837 459.566437,217.069504 
	C459.566437,199.282654 459.566437,181.495804 459.566437,163.354431 
	C463.316589,163.354431 466.508606,163.354431 469.943542,163.354431 
	C469.943542,187.793213 469.943542,212.175064 469.943542,236.981720 
	C465.987732,236.981720 462.131561,237.402878 458.449677,236.785156 
	C456.862061,236.518799 455.223297,234.324661 454.308075,232.628433 
	C444.868958,215.134277 435.565094,197.567047 426.261047,180.000336 
	C425.782654,179.097107 425.644623,178.013611 424.359680,177.112289 
	C424.359680,196.889511 424.359680,216.666733 424.359680,236.720963 
	C420.681274,236.720963 417.602905,236.720963 414.171051,236.720963 
	C414.171051,212.431229 414.171051,188.046783 414.171051,162.998383 
	C417.750977,162.998383 421.509186,162.998383 425.726349,162.998383 
z"/>
<path fill="#F4F3F5" opacity="1.000000" stroke="none" 
	d="
M273.851776,190.368378 
	C271.000702,195.780563 269.083679,201.516113 262.688385,203.468887 
	C262.400269,203.556870 262.389130,206.956635 263.243439,207.998032 
	C269.643860,215.800125 276.306213,223.386948 282.857361,231.066071 
	C284.184570,232.621826 285.387695,234.283463 287.523987,237.017212 
	C281.995544,237.017212 278.046143,237.253510 274.151764,236.894104 
	C272.711700,236.761215 271.089233,235.488846 270.082062,234.289352 
	C263.867462,226.888031 257.922241,219.257462 251.597885,211.953873 
	C250.247955,210.394943 247.792801,209.352921 245.689392,208.993164 
	C242.776672,208.494949 239.714935,208.868042 236.176346,208.868042 
	C236.176346,218.172012 236.176346,227.392883 236.176346,236.697174 
	C232.057892,236.697174 228.489075,236.697174 224.630005,236.697174 
	C224.501175,235.126297 224.306229,233.848923 224.305115,232.571381 
	C224.286255,211.075775 224.377670,189.579468 224.212036,168.085129 
	C224.182236,164.217468 225.210876,162.759766 229.233078,162.903839 
	C236.888580,163.178024 244.575272,162.698013 252.221710,163.079041 
	C261.133606,163.523117 269.462494,166.174805 272.790070,175.380508 
	C274.384521,179.791534 273.604462,185.060898 273.851776,190.368378 
M236.019394,185.501862 
	C236.019394,189.929306 236.019394,194.356735 236.019394,199.712875 
	C242.676437,198.701965 248.707474,198.458481 254.264740,196.709549 
	C258.069122,195.512283 261.627502,192.525833 261.968719,187.656693 
	C262.489380,180.226166 261.013916,176.307739 255.758423,175.018661 
	C249.453537,173.472214 242.859726,173.103622 236.019394,172.174500 
	C236.019394,177.223938 236.019394,180.868027 236.019394,185.501862 
z"/>
<path fill="#F6F6F7" opacity="1.000000" stroke="none" 
	d="
M29.987888,74.000000 
	C29.987888,59.535240 29.987888,45.570477 29.987888,31.117970 
	C40.633434,31.117970 51.090878,30.555796 61.457184,31.286478 
	C70.618797,31.932243 78.873383,40.153179 79.525284,49.081013 
	C80.175072,57.979958 76.852142,65.677765 69.167511,70.982529 
	C68.040466,71.760536 66.980659,72.635963 65.881821,73.472336 
	C74.775764,83.889008 83.383385,93.970337 92.748657,104.939034 
	C87.145660,104.939034 82.579597,105.098480 78.039650,104.824760 
	C76.931137,104.757935 75.722870,103.425575 74.875977,102.411568 
	C69.196053,95.610771 63.212383,89.014732 58.098286,81.805313 
	C53.763390,75.694344 48.136581,76.727486 41.986954,77.086929 
	C41.986954,86.184013 41.986954,95.121216 41.986954,104.535965 
	C37.984985,104.535965 34.277725,104.535965 29.987888,104.535965 
	C29.987888,94.685890 29.987888,84.592949 29.987888,74.000000 
M51.932873,66.794228 
	C53.629692,66.284149 55.299755,65.644844 57.028099,65.287010 
	C63.497002,63.947689 68.405167,58.037781 67.117363,51.869244 
	C66.468010,48.758888 64.650665,45.024590 62.163940,43.336826 
	C55.995525,39.150272 48.761681,41.441975 42.223351,40.971893 
	C42.223351,50.097179 42.223351,58.459408 42.223351,66.856117 
	C45.441158,66.856117 48.249660,66.856117 51.932873,66.794228 
z"/>
<path fill="#F9F9FA" opacity="1.000000" stroke="none" 
	d="
M39.040855,162.992462 
	C52.824684,162.992462 66.113060,162.992462 79.653526,162.992462 
	C79.653526,166.426178 79.653526,169.351349 79.653526,172.771255 
	C67.246437,172.771255 54.835701,172.771255 42.124405,172.771255 
	C42.124405,178.984955 42.124405,184.716614 42.124405,191.061066 
	C51.783356,191.061066 61.549255,191.061050 71.315155,191.061066 
	C80.326958,191.061081 80.326958,191.061111 79.636978,200.888550 
	C67.429932,200.888550 55.173561,200.888550 42.368263,200.888550 
	C42.368263,209.695496 42.368263,218.065887 42.368263,226.951279 
	C54.460579,226.951279 66.873901,226.951279 79.593597,226.951279 
	C79.593597,230.365692 79.593597,233.294113 79.593597,236.617584 
	C63.370647,236.617584 46.976925,236.617584 30.287170,236.617584 
	C30.287170,212.374863 30.287170,187.980423 30.287170,162.992462 
	C33.004742,162.992462 35.775074,162.992462 39.040855,162.992462 
z"/>
<path fill="#F9F9FA" opacity="1.000000" stroke="none" 
	d="
M359.040863,162.992462 
	C372.824493,162.992462 386.112671,162.992462 399.653534,162.992462 
	C399.653534,166.426178 399.653534,169.351334 399.653534,172.771240 
	C387.246460,172.771240 374.835724,172.771240 362.124420,172.771240 
	C362.124420,178.984955 362.124420,184.716614 362.124420,191.061066 
	C371.783325,191.061066 381.549225,191.061050 391.315125,191.061066 
	C400.326904,191.061096 400.326904,191.061111 399.637024,200.888519 
	C387.428528,200.888519 375.173279,200.888519 362.368286,200.888519 
	C362.368286,209.700317 362.368286,218.068817 362.368286,226.951218 
	C374.460693,226.951218 386.873199,226.951218 399.593567,226.951218 
	C399.593567,230.365005 399.593567,233.291138 399.593567,236.617554 
	C383.369934,236.617554 366.976624,236.617554 350.287231,236.617554 
	C350.287231,212.374969 350.287231,187.980530 350.287231,162.992462 
	C353.004669,162.992462 355.775055,162.992462 359.040863,162.992462 
z"/>
<path fill="#F9F9FA" opacity="1.000000" stroke="none" 
	d="
M496.053986,237.008942 
	C493.247498,237.008942 490.932526,237.008942 488.306519,237.008942 
	C488.306519,212.413025 488.306519,188.018173 488.306519,163.307266 
	C504.600098,163.307266 520.981079,163.307266 537.637634,163.307266 
	C537.637634,166.395462 537.637634,169.321686 537.637634,172.743881 
	C525.279053,172.743881 512.868713,172.743881 500.140747,172.743881 
	C500.140747,178.957809 500.140747,184.689133 500.140747,191.045715 
	C512.373413,191.045715 524.763245,191.045715 537.526245,191.045715 
	C537.526245,194.558136 537.526245,197.467560 537.526245,200.866058 
	C525.459167,200.866058 513.205688,200.866058 500.385071,200.866058 
	C500.385071,209.675507 500.385071,218.043854 500.385071,226.925934 
	C512.430115,226.925934 524.843445,226.925934 537.579346,226.925934 
	C537.579346,230.337936 537.579346,233.264832 537.579346,237.008942 
	C524.048401,237.008942 510.296967,237.008942 496.053986,237.008942 
z"/>
<path fill="#F8F7F8" opacity="1.000000" stroke="none" 
	d="
M450.568695,33.565941 
	C453.358643,29.393410 457.251282,31.337923 460.568573,31.038059 
	C464.281189,30.702457 466.715057,30.961727 468.345734,35.980942 
	C473.443359,51.671177 479.880157,66.921761 485.578888,82.423279 
	C488.233765,89.645119 490.383789,97.052574 492.907257,104.821075 
	C488.152618,104.821075 484.367584,104.821075 480.762329,104.821075 
	C478.378784,98.155441 476.076202,91.716187 473.675934,85.003738 
	C464.735321,85.003738 455.755676,84.953583 446.778351,85.075165 
	C445.794800,85.088493 444.271423,85.859955 443.937042,86.668114 
	C441.565063,92.401459 439.437805,98.236046 437.013824,104.613869 
	C433.991028,104.613869 430.256348,104.613869 425.672668,104.613869 
	C426.579010,101.181282 427.244263,97.696106 428.418671,94.391884 
	C432.228882,83.671761 436.155701,72.991547 440.173553,62.347263 
	C443.211945,54.297882 446.500183,46.343010 449.571320,38.305611 
	C450.092651,36.941242 450.079071,35.372494 450.568695,33.565941 
M462.413391,75.012207 
	C464.879791,75.012207 467.346222,75.012207 470.352081,75.012207 
	C466.578339,64.578407 462.988007,54.651775 458.943817,43.470242 
	C454.906219,54.619488 451.306458,64.559669 447.521149,75.012207 
	C452.832703,75.012207 457.139008,75.012207 462.413391,75.012207 
z"/>
<path fill="#FBFBFB" opacity="1.000000" stroke="none" 
	d="
M172.342758,208.285583 
	C172.342758,214.559692 172.342758,220.363190 172.342758,227.003723 
	C175.402451,227.003723 178.165207,227.003708 180.927948,227.003738 
	C189.760315,227.003815 198.594193,227.099213 207.424347,226.959946 
	C211.289185,226.898987 211.608414,229.113358 211.675415,232.106979 
	C211.744751,235.204269 211.321106,237.116882 207.431168,237.073212 
	C192.454712,236.905045 177.475235,237.005020 162.160400,237.005020 
	C162.160400,212.389221 162.160400,187.993088 162.160400,162.996185 
	C167.166153,162.996185 172.269043,162.996170 177.371918,162.996185 
	C187.204163,162.996185 197.039383,163.135406 206.867188,162.926682 
	C210.718857,162.844910 211.719498,164.401443 211.709671,167.962006 
	C211.700089,171.429855 210.932205,173.166809 206.976486,173.076065 
	C197.315979,172.854462 187.646881,172.987305 177.981384,173.018799 
	C176.205597,173.024597 174.430435,173.225128 172.515610,173.344452 
	C172.515610,179.240585 172.515610,184.680801 172.515610,191.065323 
	C175.672012,191.065323 178.758011,191.065323 181.844009,191.065323 
	C189.009888,191.065323 196.196411,191.407578 203.336319,190.976974 
	C211.876389,190.461899 212.204239,193.308594 211.336639,200.677124 
	C209.518539,200.858917 207.589767,201.205826 205.658783,201.218552 
	C196.660156,201.277893 187.652466,201.478745 178.665192,201.154144 
	C173.549973,200.969376 171.883286,203.157089 172.342758,208.285583 
z"/>
<path fill="#FBFBFB" opacity="1.000000" stroke="none" 
	d="
M242.342758,49.051834 
	C242.342758,52.351963 242.342758,55.178299 242.342758,58.582870 
	C244.175049,58.748619 245.924866,59.033947 247.676239,59.043781 
	C256.174866,59.091496 264.686523,59.353355 273.169281,58.983330 
	C281.447418,58.622227 282.103607,60.436253 281.433014,68.594955 
	C279.639679,68.802879 277.735199,69.201225 275.827972,69.214775 
	C266.496307,69.281082 257.161499,69.368408 247.832901,69.187202 
	C243.809341,69.109047 242.262161,70.787651 242.317490,74.646545 
	C242.410400,81.125366 242.342926,87.606491 242.342926,94.608528 
	C244.292755,94.749268 246.054794,94.980080 247.817657,94.986504 
	C257.649597,95.022331 267.483215,95.102348 277.313019,94.954109 
	C281.102539,94.896965 281.656830,96.913887 281.671875,99.996521 
	C281.686401,102.973419 281.548065,105.115234 277.542786,105.071053 
	C262.557648,104.905769 247.569595,105.004929 232.202988,105.004929 
	C232.202988,80.464378 232.202988,56.068024 232.202988,30.996172 
	C233.906586,30.996172 235.832809,30.996170 237.759048,30.996172 
	C250.757370,30.996181 263.757080,31.100651 276.753174,30.930166 
	C280.470978,30.881397 281.684296,32.164787 281.725739,35.845829 
	C281.769135,39.699589 280.627106,41.185261 276.591125,41.081776 
	C267.098602,40.838394 257.595551,40.988728 248.096863,41.017254 
	C246.309357,41.022621 244.522385,41.201920 242.342758,41.322704 
	C242.342758,44.001648 242.342758,46.289845 242.342758,49.051834 
z"/>
<path fill="#FBFBFB" opacity="1.000000" stroke="none" 
	d="
M110.348389,92.553825 
	C111.965019,93.677322 113.567131,94.884773 115.190704,94.914368 
	C125.020164,95.093529 134.858185,95.159851 144.685532,94.930244 
	C148.871445,94.832443 149.602570,96.751678 149.724121,100.367264 
	C149.856781,104.313332 148.178574,105.098740 144.668457,105.065132 
	C129.878021,104.923485 115.085464,105.005211 100.059967,105.005211 
	C100.059967,80.212013 100.059967,55.815472 100.059967,30.997581 
	C115.562714,30.997581 130.851044,31.009695 146.139343,30.989159 
	C150.015976,30.983952 149.541504,33.721966 149.642105,36.232136 
	C149.755493,39.061550 149.354996,41.098179 145.705887,41.048866 
	C135.874969,40.916008 126.041023,40.990902 116.208359,41.015499 
	C114.415215,41.019985 112.622459,41.176392 110.596451,41.273880 
	C110.596451,47.074970 110.596451,52.517357 110.596451,58.594032 
	C112.127243,58.737679 113.872253,59.032913 115.618912,59.043041 
	C124.118095,59.092331 132.630066,59.350937 141.113693,58.984215 
	C149.433731,58.624565 150.092316,60.406761 149.440109,68.567436 
	C147.668259,68.783394 145.776718,69.199043 143.882126,69.213432 
	C134.716568,69.283043 125.546165,69.405060 116.385818,69.175484 
	C111.977432,69.064995 110.138878,70.650177 110.294792,75.096146 
	C110.493263,80.755524 110.343460,86.427124 110.348389,92.553825 
z"/>
<path fill="#F5F5F6" opacity="1.000000" stroke="none" 
	d="
M308.340820,47.394012 
	C299.048218,61.258358 299.859039,82.153160 311.871429,91.269569 
	C317.230164,95.336411 323.113037,97.373413 330.437164,95.850182 
	C337.476196,94.386246 343.730621,92.202820 349.055450,87.378654 
	C349.553864,86.927094 350.632935,87.116417 351.741150,86.968239 
	C351.741150,91.577141 351.741150,95.982841 351.741150,100.366982 
	C342.760681,104.197548 333.763550,107.363014 323.781494,106.938263 
	C309.513428,106.331123 296.784302,98.217339 292.496674,84.666092 
	C289.673279,75.742538 288.806915,66.399025 291.527740,56.675579 
	C293.803131,48.543995 296.871429,41.540577 303.768188,36.704185 
	C312.739349,30.413103 322.401550,27.204931 333.551331,30.497099 
	C339.580383,32.277287 345.837463,33.285217 351.871399,34.615028 
	C351.871399,40.036819 351.871399,44.340260 351.871399,49.970982 
	C337.623322,40.349895 323.458801,33.783905 308.340820,47.394012 
z"/>
<path fill="#F5F5F6" opacity="1.000000" stroke="none" 
	d="
M376.596924,86.224121 
	C381.473358,93.249954 388.553864,96.551598 396.028900,96.463867 
	C403.138550,96.380432 410.586243,94.705650 416.399139,89.421616 
	C417.759277,88.185188 419.709534,87.597961 421.873840,86.455818 
	C421.873840,91.660141 421.873840,95.964088 421.873840,101.506317 
	C413.638733,103.297729 405.328613,106.326721 396.907898,106.674026 
	C381.097656,107.326088 368.334991,100.772789 362.852295,85.148636 
	C357.639709,70.294189 357.948639,55.035957 368.182892,42.210140 
	C377.147797,30.975048 389.416840,26.785629 403.879120,30.625637 
	C409.821625,32.203480 415.896057,33.284210 421.854553,34.578899 
	C421.854553,39.898331 421.854553,44.200905 421.854553,49.536098 
	C419.753937,48.488728 417.986542,47.870621 416.516144,46.832012 
	C406.383667,39.674969 395.786469,37.003555 384.069000,42.923992 
	C379.038757,45.465591 376.093964,49.930786 374.392181,54.799343 
	C372.811310,59.322094 371.852386,64.450172 372.247681,69.175545 
	C372.720245,74.824295 374.922363,80.328362 376.596924,86.224121 
z"/>
<path fill="#F5F5F6" opacity="1.000000" stroke="none" 
	d="
M92.369263,187.506744 
	C89.758049,180.155975 87.266212,173.208618 84.812019,166.248001 
	C84.499092,165.360443 84.382668,164.403580 84.160034,163.411224 
	C85.035812,163.261749 85.685867,163.090286 86.344284,163.047485 
	C97.128822,162.346481 97.160110,162.784882 100.167526,173.187149 
	C102.600334,181.601913 106.181137,189.682022 109.183220,197.935852 
	C111.489006,204.275330 113.654373,210.665833 115.950996,217.008728 
	C116.683205,219.030975 117.636131,220.973312 118.742668,223.543625 
	C126.100403,202.914276 133.170120,183.092468 140.267746,163.192413 
	C144.134857,163.192413 147.924362,163.192413 152.444824,163.192413 
	C143.394592,188.045517 134.496262,212.481476 125.597939,236.917419 
	C120.524574,236.917419 115.710541,236.917419 110.577713,236.917419 
	C104.916061,220.929291 99.254463,204.925903 93.556351,188.935501 
	C93.408180,188.519714 92.861221,188.246017 92.369263,187.506744 
z"/>
<path fill="#F9F8F9" opacity="1.000000" stroke="none" 
	d="
M294.070770,191.999969 
	C294.070770,182.208694 294.070770,172.917404 294.070770,163.311066 
	C298.022552,163.311066 301.623016,163.311066 305.656250,163.311066 
	C305.656250,184.198227 305.656250,205.252655 305.656250,226.725708 
	C317.805298,226.725708 329.539001,226.725708 341.638397,226.725708 
	C341.638397,230.195374 341.638397,233.263824 341.638397,236.674393 
	C326.170227,236.674393 310.449890,236.674393 294.070770,236.674393 
	C294.070770,221.985077 294.070770,207.242523 294.070770,191.999969 
z"/>
<path fill="#10031F" opacity="1.000000" stroke="none" 
	d="
M174.025009,80.018944 
	C174.025009,76.722260 174.025009,73.922729 174.025009,71.075584 
	C182.752625,71.075584 191.153610,70.865227 199.535324,71.175354 
	C203.067856,71.306061 207.767548,77.156250 207.776825,80.960930 
	C207.786148,84.782684 205.078583,92.135811 200.201370,92.904320 
	C191.749512,94.236084 183.200806,94.953148 174.025009,96.004524 
	C174.025009,90.030052 174.025009,85.273079 174.025009,80.018944 
z"/>
<path fill="#180C26" opacity="1.000000" stroke="none" 
	d="
M182.627731,60.533802 
	C173.140823,60.399494 174.076996,61.962475 174.012466,52.265720 
	C173.988373,48.646278 174.008575,45.026539 174.008575,40.096233 
	C181.864700,41.051289 189.215530,42.016319 196.584488,42.813698 
	C200.933853,43.284325 201.127609,47.037304 201.313202,49.702698 
	C201.596481,53.771248 197.195953,58.517029 193.805603,59.022007 
	C190.231384,59.554371 186.649017,60.032009 182.627731,60.533802 
z"/>
<path fill="#120520" opacity="1.000000" stroke="none" 
	d="
M236.019394,185.006989 
	C236.019394,180.868027 236.019394,177.223938 236.019394,172.174500 
	C242.859726,173.103622 249.453537,173.472214 255.758423,175.018661 
	C261.013916,176.307739 262.489380,180.226166 261.968719,187.656693 
	C261.627502,192.525833 258.069122,195.512283 254.264740,196.709549 
	C248.707474,198.458481 242.676437,198.701965 236.019394,199.712875 
	C236.019394,194.356735 236.019394,189.929306 236.019394,185.006989 
z"/>
<path fill="#140723" opacity="1.000000" stroke="none" 
	d="
M51.495522,66.825172 
	C48.249660,66.856117 45.441158,66.856117 42.223351,66.856117 
	C42.223351,58.459408 42.223351,50.097179 42.223351,40.971893 
	C48.761681,41.441975 55.995525,39.150272 62.163940,43.336826 
	C64.650665,45.024590 66.468010,48.758888 67.117363,51.869244 
	C68.405167,58.037781 63.497002,63.947689 57.028099,65.287010 
	C55.299755,65.644844 53.629692,66.284149 51.495522,66.825172 
z"/>
<path fill="#160924" opacity="1.000000" stroke="none" 
	d="
M461.929321,75.012207 
	C457.139008,75.012207 452.832703,75.012207 447.521149,75.012207 
	C451.306458,64.559669 454.906219,54.619488 458.943817,43.470242 
	C462.988007,54.651775 466.578339,64.578407 470.352081,75.012207 
	C467.346222,75.012207 464.879791,75.012207 461.929321,75.012207 
z"/>
</svg>