<svg version="1.1" id="Layer_1" xmlns="http://www.w3.org/2000/svg" xmlns:xlink="http://www.w3.org/1999/xlink" x="0px" y="0px"
	 width="100%" viewBox="0 0 410 142" enable-background="new 0 0 410 142" xml:space="preserve">
<path fill="#000000" opacity="1.000000" stroke="none" 
	d="
M268.000000,143.000000 
	C178.666687,143.000000 89.833374,143.000000 1.000048,143.000000 
	C1.000032,95.666702 1.000032,48.333397 1.000016,1.000073 
	C137.666611,1.000049 274.333221,1.000049 410.999878,1.000024 
	C410.999908,48.333256 410.999908,95.666512 410.999939,142.999878 
	C363.500000,143.000000 316.000000,143.000000 268.000000,143.000000 
M112.001007,51.031391 
	C107.600990,51.424038 103.169785,51.627491 98.823151,52.343990 
	C97.752899,52.520409 96.188919,54.359344 96.176300,55.449322 
	C96.132782,59.208740 96.829430,62.969353 96.965538,66.739571 
	C97.412819,79.129776 97.658798,91.527557 98.155045,103.915504 
	C98.315125,107.911476 99.009712,111.886040 99.463280,115.901245 
	C115.215134,111.962067 115.221916,111.961266 113.742310,99.428429 
	C113.610817,98.314674 113.315079,97.220299 113.829887,95.635162 
	C113.885872,81.560928 113.959160,67.486679 113.949783,53.412487 
	C113.949280,52.660862 113.252159,51.909706 112.001007,51.031391 
M45.996708,71.457664 
	C45.571182,72.863426 45.145660,74.269188 44.511192,76.365219 
	C43.096073,60.372528 41.761047,45.284969 40.370262,29.567226 
	C33.700890,30.481781 27.414206,31.343861 20.867575,32.241585 
	C22.174824,40.782196 23.420532,48.750313 24.609928,56.726826 
	C27.100676,73.430649 29.728697,90.116638 31.959425,106.855392 
	C32.963890,114.392593 32.601974,114.492920 39.994312,114.825066 
	C42.805847,114.951385 45.627815,114.845596 48.700081,114.845596 
	C51.431999,106.517784 54.160099,98.201607 57.289551,88.661972 
	C58.060921,92.535515 58.422733,95.090752 59.092827,97.562408 
	C60.452732,102.578453 60.996803,108.269165 63.884720,112.210968 
	C65.175240,113.972427 71.310760,112.181862 75.247749,112.009811 
	C75.746368,111.988014 76.247078,112.017792 76.746216,112.003250 
	C79.826729,111.913490 81.463661,110.237694 81.923912,107.275665 
	C82.926941,100.820541 83.929230,94.365303 84.933105,87.910316 
	C87.795235,69.506615 90.691345,51.107971 93.434929,32.686619 
	C93.593880,31.619318 92.680382,29.469917 91.988503,29.343569 
	C86.229256,28.291838 80.404785,27.597303 74.187538,26.737877 
	C72.889771,44.315212 71.648651,61.125324 70.407532,77.935432 
	C70.191246,77.950844 69.974953,77.966255 69.758667,77.981659 
	C65.919373,62.604580 62.080078,47.227497 58.240784,31.850414 
	C57.711124,31.866577 57.181461,31.882742 56.651798,31.898905 
	C53.110958,44.808064 49.570122,57.717220 45.996708,71.457664 
M370.042236,84.331535 
	C368.814667,79.077774 367.587097,73.824013 366.359528,68.570251 
	C366.238159,67.141884 367.288452,65.332870 368.089874,63.419621 
	C371.679199,54.850800 370.304840,45.951225 369.147400,37.242970 
	C368.811646,34.717018 366.211060,31.728939 363.840393,30.443428 
	C361.283691,29.057043 357.774048,29.049143 354.689117,29.091787 
	C347.403992,29.192492 340.121155,29.625578 332.843781,30.037024 
	C329.735565,30.212751 326.228210,29.937935 323.741669,31.348083 
	C322.701782,31.937822 323.936157,36.375221 323.980865,39.065819 
	C324.339996,60.681370 324.730530,82.296890 324.931488,103.914108 
	C324.967346,107.769012 324.169891,111.631668 323.706848,115.962021 
	C333.426910,115.962021 342.557251,116.228287 351.660431,115.846840 
	C356.044617,115.663124 360.456970,114.535873 364.708862,113.319443 
	C368.144440,112.336540 370.877747,109.882774 370.925873,106.041809 
	C371.013214,99.075432 370.647278,92.103363 370.042236,84.331535 
M155.454071,92.012825 
	C150.445938,92.378654 145.437790,92.744476 139.498016,93.178360 
	C147.170563,82.195038 153.829407,71.636482 161.540131,61.911991 
	C169.335678,52.080517 173.527649,41.800083 170.346848,29.394388 
	C152.297577,29.394388 134.251541,29.394388 115.718590,29.394388 
	C116.221397,37.126797 116.699348,44.476921 117.201492,52.199169 
	C128.362686,50.976933 139.140900,49.796635 150.333725,48.570938 
	C141.536896,60.027336 132.891220,71.080086 124.499557,82.322433 
	C121.360428,86.527954 117.449860,90.868233 116.361145,95.703278 
	C115.158554,101.044022 116.789497,107.022789 117.176270,112.579651 
	C135.390335,112.579651 153.099335,112.579651 171.322296,112.579651 
	C171.322296,105.240570 171.322296,98.254547 171.322296,90.752502 
	C166.165848,91.185509 161.281601,91.595650 155.454071,92.012825 
M278.595428,110.999016 
	C279.335968,111.633942 280.029602,112.752151 280.824249,112.829247 
	C289.033813,113.625717 297.271973,114.906410 305.477722,114.752075 
	C314.287537,114.586380 320.976959,107.419930 320.903961,99.072594 
	C320.754425,81.973495 320.327698,64.875313 319.839142,47.781788 
	C319.718414,43.558372 318.923706,39.354229 318.371796,34.558914 
	C312.400024,35.399094 306.697510,36.201393 301.336487,36.955650 
	C302.015900,44.630981 302.838745,51.175220 303.121796,57.742729 
	C303.592590,68.668137 304.010986,79.613831 303.811523,90.539307 
	C303.750244,93.895454 301.425018,96.844566 297.130432,97.193184 
	C292.938110,97.533493 290.773560,95.358162 290.252777,91.751671 
	C289.524750,86.710121 288.950409,81.566948 289.114929,76.493347 
	C289.408905,67.428085 290.309509,58.382706 290.946045,49.328278 
	C291.338440,43.746727 291.711548,38.163822 292.137360,31.937267 
	C286.056519,31.566311 280.388153,31.220520 273.976990,30.829414 
	C273.976990,35.595543 274.028168,39.719696 273.968140,43.842232 
	C273.694427,62.644848 273.139374,81.449364 273.316711,100.247246 
	C273.350250,103.806671 276.246643,107.339096 278.595428,110.999016 
M192.960052,41.508369 
	C192.960052,37.421440 192.960052,33.334511 192.960052,28.780561 
	C186.288071,29.254923 180.384796,29.674631 173.736557,30.147303 
	C174.168732,35.251015 174.793716,40.103500 174.951889,44.971161 
	C175.436325,59.878139 175.700562,74.792137 176.134064,89.700974 
	C176.344864,96.951431 176.630493,104.204651 177.161682,111.436096 
	C177.252472,112.672104 178.674927,114.746193 179.615372,114.824036 
	C183.998932,115.186874 188.429245,114.984863 193.018036,114.984863 
	C193.018036,106.360229 193.018036,98.424469 193.018036,90.059326 
	C197.601929,97.439293 201.879196,104.459503 206.349258,111.354729 
	C206.915161,112.227661 208.597763,113.040436 209.582565,112.865479 
	C214.364151,112.015999 219.084259,110.820396 224.324112,109.634697 
	C218.040375,97.990677 212.054184,87.038414 206.252014,75.989502 
	C205.416367,74.398216 204.669083,72.014275 205.264206,70.565269 
	C206.737305,66.978508 209.053864,63.744247 210.956192,60.326431 
	C215.076035,52.924503 219.148773,45.496346 223.463760,37.674702 
	C218.925613,36.087570 214.974075,34.480404 210.879547,33.431145 
	C209.849457,33.167171 207.891586,34.370674 207.159866,35.444672 
	C202.406006,42.422241 197.872955,49.550255 192.960052,57.101753 
	C192.960052,51.822739 192.960052,47.161854 192.960052,41.508369 
M227.995148,110.267761 
	C228.130814,111.485359 228.266464,112.702957 228.389725,113.809349 
	C242.491592,112.966240 256.124237,112.151192 270.005493,111.321274 
	C270.005493,106.335999 269.802582,102.009872 270.068787,97.712814 
	C270.286987,94.190300 269.026276,93.014725 265.533234,93.123810 
	C258.762817,93.335228 251.981140,93.185623 244.683365,93.185623 
	C245.195694,70.227768 245.697678,47.733906 246.210541,24.752516 
	C239.317291,25.523808 233.212402,26.206888 227.992081,26.790995 
	C227.992081,40.513714 227.988083,53.437687 227.993179,66.361664 
	C227.998825,80.679344 228.012772,94.997017 227.995148,110.267761 
z"/>
<path fill="#FFFBF8" opacity="1.000000" stroke="none" 
	d="
M46.012993,71.042023 
	C49.570122,57.717220 53.110958,44.808064 56.651798,31.898905 
	C57.181461,31.882742 57.711124,31.866577 58.240784,31.850414 
	C62.080078,47.227497 65.919373,62.604580 69.758667,77.981659 
	C69.974953,77.966255 70.191246,77.950844 70.407532,77.935432 
	C71.648651,61.125324 72.889771,44.315212 74.187538,26.737877 
	C80.404785,27.597303 86.229256,28.291838 91.988503,29.343569 
	C92.680382,29.469917 93.593880,31.619318 93.434929,32.686619 
	C90.691345,51.107971 87.795235,69.506615 84.933105,87.910316 
	C83.929230,94.365303 82.926941,100.820541 81.923912,107.275665 
	C81.463661,110.237694 79.826729,111.913490 76.746216,112.003250 
	C76.247078,112.017792 75.746368,111.988014 75.247749,112.009811 
	C71.310760,112.181862 65.175240,113.972427 63.884720,112.210968 
	C60.996803,108.269165 60.452732,102.578453 59.092827,97.562408 
	C58.422733,95.090752 58.060921,92.535515 57.289551,88.661972 
	C54.160099,98.201607 51.431999,106.517784 48.700081,114.845596 
	C45.627815,114.845596 42.805847,114.951385 39.994312,114.825066 
	C32.601974,114.492920 32.963890,114.392593 31.959425,106.855392 
	C29.728697,90.116638 27.100676,73.430649 24.609928,56.726826 
	C23.420532,48.750313 22.174824,40.782196 20.867575,32.241585 
	C27.414206,31.343861 33.700890,30.481781 40.370262,29.567226 
	C41.761047,45.284969 43.096073,60.372528 44.511192,76.365219 
	C45.145660,74.269188 45.571182,72.863426 46.012993,71.042023 
z"/>
<path fill="#FFFCFA" opacity="1.000000" stroke="none" 
	d="
M370.256409,84.732605 
	C370.647278,92.103363 371.013214,99.075432 370.925873,106.041809 
	C370.877747,109.882774 368.144440,112.336540 364.708862,113.319443 
	C360.456970,114.535873 356.044617,115.663124 351.660431,115.846840 
	C342.557251,116.228287 333.426910,115.962021 323.706848,115.962021 
	C324.169891,111.631668 324.967346,107.769012 324.931488,103.914108 
	C324.730530,82.296890 324.339996,60.681370 323.980865,39.065819 
	C323.936157,36.375221 322.701782,31.937822 323.741669,31.348083 
	C326.228210,29.937935 329.735565,30.212751 332.843781,30.037024 
	C340.121155,29.625578 347.403992,29.192492 354.689117,29.091787 
	C357.774048,29.049143 361.283691,29.057043 363.840393,30.443428 
	C366.211060,31.728939 368.811646,34.717018 369.147400,37.242970 
	C370.304840,45.951225 371.679199,54.850800 368.089874,63.419621 
	C367.288452,65.332870 366.238159,67.141884 366.359528,68.570251 
	C367.587097,73.824013 368.814667,79.077774 370.256409,84.732605 
M353.946075,80.409302 
	C350.095490,79.710678 346.244873,79.012054 342.203735,78.278854 
	C342.203735,85.224983 342.203735,91.073029 342.203735,97.043526 
	C344.992096,97.043526 347.618164,97.566452 349.879913,96.883247 
	C351.797333,96.304039 354.535034,94.488655 354.731384,92.943497 
	C355.217316,89.119164 354.455109,85.136230 353.946075,80.409302 
M341.004822,50.715611 
	C341.004883,53.539810 341.122528,56.370316 340.971405,59.186401 
	C340.825134,61.912483 341.764557,62.973129 344.643616,63.063316 
	C352.727051,63.316540 357.525299,57.208286 354.754425,49.464489 
	C352.966827,44.468803 348.302429,46.266193 344.623291,45.889908 
	C341.704590,45.591400 340.740875,47.110451 341.004822,50.715611 
z"/>
<path fill="#FFFCF9" opacity="1.000000" stroke="none" 
	d="
M155.925720,92.009308 
	C161.281601,91.595650 166.165848,91.185509 171.322296,90.752502 
	C171.322296,98.254547 171.322296,105.240570 171.322296,112.579651 
	C153.099335,112.579651 135.390335,112.579651 117.176270,112.579651 
	C116.789497,107.022789 115.158554,101.044022 116.361145,95.703278 
	C117.449860,90.868233 121.360428,86.527954 124.499557,82.322433 
	C132.891220,71.080086 141.536896,60.027336 150.333725,48.570938 
	C139.140900,49.796635 128.362686,50.976933 117.201492,52.199169 
	C116.699348,44.476921 116.221397,37.126797 115.718590,29.394388 
	C134.251541,29.394388 152.297577,29.394388 170.346848,29.394388 
	C173.527649,41.800083 169.335678,52.080517 161.540131,61.911991 
	C153.829407,71.636482 147.170563,82.195038 139.498016,93.178360 
	C145.437790,92.744476 150.445938,92.378654 155.925720,92.009308 
z"/>
<path fill="#FFFBF8" opacity="1.000000" stroke="none" 
	d="
M278.208771,110.941498 
	C276.246643,107.339096 273.350250,103.806671 273.316711,100.247246 
	C273.139374,81.449364 273.694427,62.644848 273.968140,43.842232 
	C274.028168,39.719696 273.976990,35.595543 273.976990,30.829414 
	C280.388153,31.220520 286.056519,31.566311 292.137360,31.937267 
	C291.711548,38.163822 291.338440,43.746727 290.946045,49.328278 
	C290.309509,58.382706 289.408905,67.428085 289.114929,76.493347 
	C288.950409,81.566948 289.524750,86.710121 290.252777,91.751671 
	C290.773560,95.358162 292.938110,97.533493 297.130432,97.193184 
	C301.425018,96.844566 303.750244,93.895454 303.811523,90.539307 
	C304.010986,79.613831 303.592590,68.668137 303.121796,57.742729 
	C302.838745,51.175220 302.015900,44.630981 301.336487,36.955650 
	C306.697510,36.201393 312.400024,35.399094 318.371796,34.558914 
	C318.923706,39.354229 319.718414,43.558372 319.839142,47.781788 
	C320.327698,64.875313 320.754425,81.973495 320.903961,99.072594 
	C320.976959,107.419930 314.287537,114.586380 305.477722,114.752075 
	C297.271973,114.906410 289.033813,113.625717 280.824249,112.829247 
	C280.029602,112.752151 279.335968,111.633942 278.208771,110.941498 
z"/>
<path fill="#FFFBF7" opacity="1.000000" stroke="none" 
	d="
M192.960052,42.004669 
	C192.960052,47.161854 192.960052,51.822739 192.960052,57.101753 
	C197.872955,49.550255 202.406006,42.422241 207.159866,35.444672 
	C207.891586,34.370674 209.849457,33.167171 210.879547,33.431145 
	C214.974075,34.480404 218.925613,36.087570 223.463760,37.674702 
	C219.148773,45.496346 215.076035,52.924503 210.956192,60.326431 
	C209.053864,63.744247 206.737305,66.978508 205.264206,70.565269 
	C204.669083,72.014275 205.416367,74.398216 206.252014,75.989502 
	C212.054184,87.038414 218.040375,97.990677 224.324112,109.634697 
	C219.084259,110.820396 214.364151,112.015999 209.582565,112.865479 
	C208.597763,113.040436 206.915161,112.227661 206.349258,111.354729 
	C201.879196,104.459503 197.601929,97.439293 193.018036,90.059326 
	C193.018036,98.424469 193.018036,106.360229 193.018036,114.984863 
	C188.429245,114.984863 183.998932,115.186874 179.615372,114.824036 
	C178.674927,114.746193 177.252472,112.672104 177.161682,111.436096 
	C176.630493,104.204651 176.344864,96.951431 176.134064,89.700974 
	C175.700562,74.792137 175.436325,59.878139 174.951889,44.971161 
	C174.793716,40.103500 174.168732,35.251015 173.736557,30.147303 
	C180.384796,29.674631 186.288071,29.254923 192.960052,28.780561 
	C192.960052,33.334511 192.960052,37.421440 192.960052,42.004669 
z"/>
<path fill="#FFFBF8" opacity="1.000000" stroke="none" 
	d="
M228.009125,109.791229 
	C228.012772,94.997017 227.998825,80.679344 227.993179,66.361664 
	C227.988083,53.437687 227.992081,40.513714 227.992081,26.790995 
	C233.212402,26.206888 239.317291,25.523808 246.210541,24.752516 
	C245.697678,47.733906 245.195694,70.227768 244.683365,93.185623 
	C251.981140,93.185623 258.762817,93.335228 265.533234,93.123810 
	C269.026276,93.014725 270.286987,94.190300 270.068787,97.712814 
	C269.802582,102.009872 270.005493,106.335999 270.005493,111.321274 
	C256.124237,112.151192 242.491592,112.966240 228.389725,113.809349 
	C228.266464,112.702957 228.130814,111.485359 228.009125,109.791229 
z"/>
<path fill="#FFFCF9" opacity="1.000000" stroke="none" 
	d="
M113.095627,96.116928 
	C113.315079,97.220299 113.610817,98.314674 113.742310,99.428429 
	C115.221916,111.961266 115.215134,111.962067 99.463280,115.901245 
	C99.009712,111.886040 98.315125,107.911476 98.155045,103.915504 
	C97.658798,91.527557 97.412819,79.129776 96.965538,66.739571 
	C96.829430,62.969353 96.132782,59.208740 96.176300,55.449322 
	C96.188919,54.359344 97.752899,52.520409 98.823151,52.343990 
	C103.169785,51.627491 107.600990,51.424038 112.480339,51.552261 
	C113.004990,66.754395 113.050308,81.435661 113.095627,96.116928 
z"/>
<path fill="#FFAE5F" opacity="1.000000" stroke="none" 
	d="
M113.462753,95.876045 
	C113.050308,81.435661 113.004990,66.754395 112.919495,51.615730 
	C113.252159,51.909706 113.949280,52.660862 113.949783,53.412487 
	C113.959160,67.486679 113.885872,81.560928 113.462753,95.876045 
z"/>
<path fill="#000000" opacity="1.000000" stroke="none" 
	d="
M354.070251,80.813164 
	C354.455109,85.136230 355.217316,89.119164 354.731384,92.943497 
	C354.535034,94.488655 351.797333,96.304039 349.879913,96.883247 
	C347.618164,97.566452 344.992096,97.043526 342.203735,97.043526 
	C342.203735,91.073029 342.203735,85.224983 342.203735,78.278854 
	C346.244873,79.012054 350.095490,79.710678 354.070251,80.813164 
z"/>
<path fill="#000000" opacity="1.000000" stroke="none" 
	d="
M341.004883,50.245171 
	C340.740875,47.110451 341.704590,45.591400 344.623291,45.889908 
	C348.302429,46.266193 352.966827,44.468803 354.754425,49.464489 
	C357.525299,57.208286 352.727051,63.316540 344.643616,63.063316 
	C341.764557,62.973129 340.825134,61.912483 340.971405,59.186401 
	C341.122528,56.370316 341.004883,53.539810 341.004883,50.245171 
z"/>
</svg>