<svg version="1.1" id="Layer_1" xmlns="http://www.w3.org/2000/svg" xmlns:xlink="http://www.w3.org/1999/xlink" x="0px" y="0px"
	 width="100%" viewBox="0 0 592 646" enable-background="new 0 0 592 646" xml:space="preserve">
<path fill="#000000" opacity="1.000000" stroke="none" 
	d="
M1.000000,253.000000 
	C1.000000,168.683578 1.000000,84.867165 1.000000,1.025372 
	C198.276611,1.025372 395.553223,1.025372 592.914917,1.025372 
	C592.914917,216.233124 592.914917,431.466309 592.914917,646.849731 
	C395.666748,646.849731 198.333389,646.849731 1.000000,646.849731 
	C1.000000,515.780029 1.000000,384.640015 1.000000,253.000000 
M471.601898,285.936737 
	C471.763763,285.625885 471.925659,285.315002 471.975952,284.964172 
	C471.975952,284.964172 471.933807,285.074982 472.869202,284.912262 
	C483.302368,284.971924 493.742706,285.267487 504.164429,284.950439 
	C507.376862,284.852692 510.538452,283.083527 513.735474,281.264282 
	C516.117554,270.166809 518.499634,259.069336 521.071350,247.163757 
	C522.264526,238.613876 523.457642,230.063995 525.100220,220.764023 
	C526.083740,215.181915 527.067261,209.599808 528.661194,203.542740 
	C528.686035,202.725433 528.459290,201.792252 528.774109,201.108490 
	C532.506042,193.004303 533.805847,184.457916 534.066040,174.875824 
	C536.399109,164.316498 538.842896,153.780121 541.037537,143.192093 
	C543.837769,129.682465 546.681152,116.171913 548.951172,102.569183 
	C549.519897,99.161499 549.053772,94.654762 547.190918,91.935944 
	C540.801941,82.610985 533.700012,73.761070 526.642761,64.911232 
	C520.257812,56.904499 513.148132,49.443539 507.164520,41.159409 
	C502.683746,34.955975 497.338745,31.879583 489.006744,32.096153 
	C479.839478,31.377291 470.683319,30.309168 461.502472,30.017370 
	C445.784668,29.517805 430.051453,29.504053 413.471100,29.034592 
	C397.302399,28.053400 381.133698,27.072210 364.034088,25.992340 
	C357.305908,25.636915 350.574921,25.327429 343.850220,24.915203 
	C333.989594,24.310743 324.135681,23.593161 314.272186,23.044743 
	C313.236969,22.987183 312.156525,23.742941 310.158752,24.050777 
	C300.495087,23.701862 290.831390,23.352947 280.728271,22.245638 
	C268.457550,21.542177 256.186829,20.838718 243.037323,19.950470 
	C235.720490,19.982315 228.372711,20.432711 221.098007,19.894787 
	C216.461838,19.551971 212.579819,20.393322 209.010880,23.011818 
	C209.010880,23.011818 209.011734,22.923355 208.578674,23.189978 
	C208.358368,23.445015 208.138062,23.700052 207.205566,23.936995 
	C205.365204,25.284298 203.478867,26.573534 201.691895,27.988279 
	C189.754593,37.439095 177.826965,46.902233 165.920227,56.391506 
	C159.726471,61.327709 153.581711,66.325386 146.784576,71.114838 
	C138.636902,75.442696 133.135300,81.384499 134.252686,91.447586 
	C134.313156,91.992241 133.738647,92.607414 133.153366,94.068092 
	C132.519241,98.547859 131.885117,103.027634 130.838715,108.092514 
	C129.520111,110.912704 127.585159,113.612846 127.007729,116.577408 
	C125.696182,123.310944 125.052193,130.174500 124.007004,137.782227 
	C122.652084,144.212402 121.145233,150.615250 119.981674,157.079865 
	C118.603630,164.736084 117.481834,172.439575 116.324211,180.133911 
	C115.446892,185.965256 114.687447,191.814316 113.668404,198.358887 
	C113.195885,199.692276 112.723366,201.025681 112.215851,203.113251 
	C111.528725,205.745010 110.841599,208.376785 109.951660,211.822433 
	C109.624550,213.372864 109.193130,214.909882 108.991898,216.476486 
	C108.563713,219.810074 108.397575,223.181808 107.868233,226.497040 
	C106.722862,233.670288 105.416534,240.817810 103.807777,248.726852 
	C103.569405,251.804794 103.331032,254.882751 102.955811,258.319305 
	C102.955811,258.319305 103.034134,258.695068 102.347641,259.133606 
	C100.871765,267.024139 99.265274,274.893188 97.960625,282.811920 
	C96.883598,289.349060 96.163635,295.944977 94.965317,303.358063 
	C94.582535,305.603302 94.100876,307.837036 93.837822,310.096222 
	C93.310684,314.623291 92.986679,319.174591 92.427933,323.697266 
	C91.412933,331.912933 90.287682,340.114990 88.910645,348.951294 
	C87.242607,357.187897 85.424004,365.397614 83.948425,373.668549 
	C82.441315,382.116241 81.222427,390.617157 80.024918,399.115570 
	C79.899117,400.008331 80.768639,401.041351 81.166191,402.815491 
	C80.078819,407.418945 78.591644,411.970795 77.989868,416.636902 
	C76.846123,425.505432 76.208855,434.439270 75.108383,444.249603 
	C74.479553,451.618530 73.850723,458.987488 72.725967,466.935394 
	C72.207062,470.951019 71.688156,474.966644 71.005508,479.465179 
	C70.979645,479.633209 70.953781,479.801208 70.352539,480.231750 
	C69.929352,481.156555 69.506165,482.081329 68.951363,483.812714 
	C68.902817,485.172333 68.854271,486.531952 68.145706,488.346069 
	C68.430359,490.561707 68.715012,492.777344 69.373207,495.793365 
	C68.891617,499.141449 68.532692,502.512817 67.902489,505.832703 
	C66.649673,512.432434 64.884445,518.956116 64.011871,525.600708 
	C63.183182,531.911072 63.223877,538.335754 62.135197,545.156799 
	C62.136097,547.769653 62.137001,550.382568 61.780682,553.732849 
	C61.562996,556.156189 61.345314,558.579529 60.939434,561.819824 
	C61.014179,563.210388 61.088921,564.600952 61.049091,566.729675 
	C61.448952,568.972656 61.848808,571.215576 62.075771,574.213257 
	C62.337872,574.970581 62.391747,575.923279 62.892418,576.456665 
	C76.287804,590.727722 89.729164,604.955688 103.462929,619.785706 
	C106.737419,623.436768 109.710037,627.440186 113.402260,630.603760 
	C115.537483,632.433228 118.830704,633.851746 121.605881,633.857178 
	C210.739059,634.032471 299.872650,633.994995 389.006073,634.090332 
	C392.298492,634.093811 394.479340,633.110779 396.230743,630.200073 
	C396.230743,630.200073 396.235931,629.826477 396.734650,629.368347 
	C397.833008,628.555359 398.931396,627.742310 399.933014,626.930420 
	C399.933014,626.930420 399.928589,627.027100 400.601044,627.015198 
	C401.075165,626.316284 401.549286,625.617310 401.919128,624.929260 
	C401.919128,624.929260 401.923889,625.033936 402.601196,625.049805 
	C403.073517,624.339722 403.545807,623.629578 403.934448,622.911743 
	C403.934448,622.911743 403.920654,622.994629 404.482117,623.112183 
	C404.934784,622.781494 405.387421,622.450806 406.148590,622.021179 
	C406.148590,622.021179 406.135559,621.697571 406.498718,621.131714 
	C408.746521,618.864075 410.931335,616.528687 413.266754,614.355225 
	C414.578949,613.134033 416.139923,612.180298 418.029205,611.003113 
	C418.029205,611.003113 418.194611,610.582153 418.432526,610.218506 
	C418.854462,609.869263 419.276398,609.520020 420.384460,608.959839 
	C425.204926,604.246460 430.004974,599.512024 434.850067,594.824097 
	C444.865082,585.133972 455.095490,575.655823 464.834686,565.696716 
	C468.495941,561.952820 471.040405,557.116821 474.638092,552.355469 
	C480.327942,541.549622 480.127106,529.671448 480.988129,517.046631 
	C481.014435,512.957764 481.040741,508.868958 481.442963,504.156860 
	C482.295471,501.843872 483.651764,499.586914 483.916077,497.208557 
	C485.304169,484.718018 486.416046,472.196838 488.116211,458.893097 
	C488.478607,457.147003 488.965332,455.416229 489.182953,453.652222 
	C490.470215,443.217529 491.663818,432.771271 492.949554,422.336365 
	C494.277344,411.559845 495.674255,400.791840 497.680908,389.566010 
	C498.435944,386.959991 499.596039,384.396393 499.873932,381.740448 
	C500.920380,371.739868 501.679657,361.709198 502.863098,350.722717 
	C502.808807,349.039917 502.754486,347.357117 502.561768,345.446655 
	C502.415619,345.348999 502.271851,345.247955 502.085297,344.938843 
	C502.085297,344.938843 501.877289,344.913239 501.902039,344.109833 
	C500.613770,343.391663 499.342865,342.084473 498.034515,342.045868 
	C484.036926,341.632324 470.033386,341.419464 455.098694,341.013428 
	C447.801819,341.062469 440.504913,341.111481 432.671600,341.024872 
	C432.487213,341.028931 432.302826,341.032959 431.689423,340.377014 
	C430.140045,340.223267 428.590637,340.069519 427.037750,339.991241 
	C427.037750,339.991241 427.113251,339.992859 426.703552,339.202911 
	C414.538391,339.180359 402.373199,339.157806 389.249023,339.037323 
	C372.933350,339.178253 356.617401,339.298492 340.302887,339.523987 
	C339.522491,339.534760 338.754913,340.475861 337.180511,340.940552 
	C335.250977,341.349152 333.300262,341.677460 331.395508,342.179993 
	C322.153320,344.618286 322.086395,344.724243 321.343262,354.519684 
	C320.647522,359.181274 319.856384,363.831085 319.276550,368.507019 
	C318.184235,377.315094 317.213745,386.138245 316.047028,395.810089 
	C316.366211,398.392792 317.063477,400.994171 316.937103,403.554901 
	C316.467560,413.069153 315.727051,422.570038 314.986694,432.337494 
	C314.986694,432.337494 315.075684,432.603607 314.246216,433.045166 
	C314.131226,439.664795 314.016235,446.284424 313.412628,452.987091 
	C313.080811,453.159302 312.924194,453.432129 312.177094,454.269104 
	C312.175476,466.821686 312.173828,479.374268 312.040009,492.861481 
	C312.083130,498.589783 312.126282,504.318085 312.029785,510.968597 
	C312.037384,525.660400 312.044983,540.352173 311.847809,555.759521 
	C312.210815,556.529175 312.573822,557.298767 312.994415,558.031738 
	C312.994415,558.031738 312.926575,558.024658 312.997437,558.720398 
	C312.343475,559.788391 311.689484,560.856445 310.773285,561.240234 
	C308.913086,557.454529 306.991272,553.697693 305.203857,549.877930 
	C299.072235,536.774353 292.340454,523.902954 287.059540,510.462830 
	C281.292053,495.784332 276.577759,480.664612 271.992706,465.558685 
	C268.996002,455.685852 267.045959,445.495331 264.504150,434.717194 
	C264.022491,430.562866 263.696289,426.383026 263.019684,422.260681 
	C262.181366,417.153168 261.052643,412.093353 259.946381,406.093658 
	C259.574585,399.048370 259.202759,392.003082 258.929993,384.030457 
	C258.970215,373.721344 258.799896,363.405060 259.150085,353.106506 
	C259.298615,348.737671 257.778717,347.502502 253.697861,347.943665 
	C250.739029,348.263519 247.719543,348.022095 244.627777,347.937500 
	C244.627777,347.937500 244.531891,348.034454 243.963867,347.382507 
	C241.942947,346.898895 239.931229,346.049316 237.899429,345.998199 
	C230.926300,345.822815 223.946121,345.927155 216.946228,346.031311 
	C216.946228,346.031311 217.051926,346.057129 216.766220,345.544769 
	C216.533676,345.046692 216.301117,344.548584 216.343262,343.377350 
	C217.600006,340.740875 219.137802,338.198853 220.061279,335.450378 
	C222.951431,326.848999 225.620850,318.173218 228.354813,309.519623 
	C230.956741,301.283875 233.532303,293.039825 236.935898,284.837494 
	C240.295868,284.498566 243.655823,284.159607 247.871643,283.971558 
	C252.817062,283.673309 257.759094,283.229858 262.708771,283.114441 
	C268.594971,282.977173 269.888153,281.943573 270.836639,275.951019 
	C270.929230,275.366119 271.439850,274.847351 271.941132,273.474304 
	C273.637787,267.037170 275.334442,260.600067 277.741730,253.877533 
	C280.143433,247.973068 282.659912,242.111725 284.900879,236.146881 
	C286.111877,232.923447 286.852020,229.523163 288.031433,225.467087 
	C296.135468,208.185913 303.545685,190.532303 312.559753,173.739609 
	C319.977539,159.920654 329.181641,147.046661 337.813477,133.897903 
	C344.161896,124.227509 350.551727,114.554657 357.494568,105.312180 
	C364.970001,95.360611 373.100098,85.900055 380.969452,76.245552 
	C383.564514,73.061821 386.236908,69.941154 388.873932,66.791641 
	C389.429810,67.138214 389.985687,67.484795 390.541565,67.831367 
	C390.095520,69.313255 389.715881,70.819016 389.193237,72.273369 
	C383.363129,88.496941 377.740509,104.749916 373.448578,121.505127 
	C370.141937,134.414062 364.268188,146.578568 361.382751,159.727066 
	C359.532959,168.156219 356.213867,176.251648 353.977417,184.610107 
	C351.195709,195.006470 348.795166,205.506668 346.338440,215.987442 
	C344.843475,222.365051 343.553040,228.790588 341.839386,235.878586 
	C341.217072,237.638138 340.359863,239.352661 340.012512,241.164917 
	C338.364471,249.763641 336.855408,258.389038 335.302551,267.802704 
	C334.380432,269.816772 333.042877,271.748352 332.623169,273.862183 
	C331.763214,278.193237 329.930634,283.153412 334.132690,286.497345 
	C336.825897,288.640564 340.622345,289.397339 344.779938,290.957642 
	C346.328003,291.320190 347.882050,292.020020 349.423157,291.992584 
	C363.470245,291.742523 377.516632,291.412262 391.557739,290.942657 
	C392.748596,290.902832 393.899994,289.684265 395.004639,289.005310 
	C395.004639,289.005310 395.010284,289.070618 395.946075,289.007385 
	C401.271362,288.965515 406.604156,289.088745 411.920288,288.846497 
	C422.252686,288.375580 432.575714,287.699554 443.228729,287.741486 
	C444.157715,287.781799 445.086670,287.822113 446.835052,287.667389 
	C454.564575,287.439270 462.294067,287.211121 470.583862,287.066406 
	C470.694702,286.750183 470.805542,286.433929 471.011353,286.175537 
	C471.011353,286.175537 471.077332,286.086029 471.601898,285.936737 
z"/>
<path fill="#015840" opacity="1.000000" stroke="none" 
	d="
M103.162704,619.190918 
	C89.729164,604.955688 76.287804,590.727722 62.892418,576.456665 
	C62.391747,575.923279 62.337872,574.970581 62.134789,573.493225 
	C62.208454,570.511475 62.223103,568.249817 62.400078,565.598267 
	C62.603161,563.811279 62.643917,562.414001 62.777870,560.579956 
	C62.910873,557.761841 62.950680,555.380493 63.085808,552.724670 
	C63.172119,552.065491 63.163105,551.680847 63.339821,551.006958 
	C63.886982,549.274780 64.412636,547.851013 64.583656,546.385925 
	C65.855629,535.489075 67.205582,524.597778 68.223381,513.676147 
	C68.801895,507.468353 68.800911,501.206573 69.478745,494.752655 
	C70.023918,492.804443 70.151237,491.072662 70.503479,489.058899 
	C71.054420,486.523346 71.380440,484.269745 71.792267,481.690674 
	C71.864693,480.918396 71.851326,480.471649 71.911949,479.765991 
	C71.949974,479.331238 71.914009,479.155396 71.945633,478.595032 
	C72.416115,474.259155 72.819008,470.307770 73.221893,466.356415 
	C73.850723,458.987488 74.479553,451.618530 75.441269,443.599762 
	C76.251801,441.935547 77.033661,440.957733 77.160728,439.901184 
	C78.678223,427.283630 80.098396,414.654419 81.824738,401.652710 
	C84.473099,383.625702 86.840767,365.974213 89.208443,348.322723 
	C90.287682,340.114990 91.412933,331.912933 92.427933,323.697266 
	C92.986679,319.174591 93.310684,314.623291 93.837822,310.096222 
	C94.100876,307.837036 94.582535,305.603302 95.381363,302.769653 
	C96.706017,298.250427 97.857086,294.357361 98.476311,290.381470 
	C100.118317,279.838470 101.530510,269.259644 103.034134,258.695068 
	C103.034134,258.695068 102.955811,258.319305 103.344589,257.951477 
	C104.183197,254.402267 104.633026,251.220917 105.285400,247.749908 
	C107.552063,235.315536 109.616188,223.170822 111.790985,210.660553 
	C112.018066,207.649689 112.134460,205.004379 112.250854,202.359070 
	C112.723366,201.025681 113.195885,199.692276 113.908714,197.684601 
	C114.688728,194.943909 115.376953,192.903366 115.741760,190.806519 
	C117.132195,182.814606 118.349411,174.792374 119.760910,166.804352 
	C121.514984,156.877563 123.397446,146.973465 125.426636,136.761749 
	C127.502876,126.811775 129.376938,117.159592 131.251007,107.507401 
	C131.885117,103.027634 132.519241,98.547859 133.440460,93.389328 
	C134.318481,91.568787 135.345047,90.457161 135.426483,89.280113 
	C135.823959,83.536819 138.853378,79.447517 143.061386,75.902519 
	C144.666870,74.549980 145.972519,72.841537 147.414825,71.295296 
	C153.581711,66.325386 159.726471,61.327709 165.920227,56.391506 
	C177.826965,46.902233 189.754593,37.439095 201.691895,27.988279 
	C203.478867,26.573534 205.365204,25.284298 207.747803,23.999012 
	C208.530594,23.681803 208.771164,23.302578 209.011734,22.923355 
	C209.011734,22.923355 209.010880,23.011818 209.375076,22.992435 
	C213.458084,22.331694 217.160217,21.295349 220.899429,21.137573 
	C227.183884,20.872402 233.491913,21.165852 240.190872,21.351677 
	C254.117050,21.987391 267.642395,22.495712 281.167725,23.004034 
	C290.831390,23.352947 300.495087,23.701862 310.927917,24.367100 
	C322.262604,25.366707 332.819946,26.297636 343.396484,26.647112 
	C350.572052,26.884211 357.774536,26.305099 364.964996,26.091017 
	C381.133698,27.072210 397.302399,28.053400 414.073303,29.446823 
	C416.600281,30.149818 418.516937,30.614822 420.451019,30.704697 
	C442.552979,31.731749 464.656738,32.723400 486.764374,33.616840 
	C487.774414,33.657658 488.825714,32.676708 489.857819,32.171650 
	C497.338745,31.879583 502.683746,34.955975 507.164520,41.159409 
	C513.148132,49.443539 520.257812,56.904499 526.642761,64.911232 
	C533.700012,73.761070 540.801941,82.610985 547.190918,91.935944 
	C549.053772,94.654762 549.519897,99.161499 548.951172,102.569183 
	C546.681152,116.171913 543.837769,129.682465 541.037537,143.192093 
	C538.842896,153.780121 536.399109,164.316498 533.739258,175.508484 
	C532.075500,181.602524 530.568115,187.029633 529.460327,192.537125 
	C528.702271,196.306015 528.500916,200.186874 528.050659,204.017685 
	C527.067261,209.599808 526.083740,215.181915 524.706055,221.380249 
	C522.789246,230.234711 521.266663,238.472946 519.481934,246.976929 
	C518.187622,252.233994 517.146484,257.223450 516.125549,262.217041 
	C514.774109,268.827057 513.438538,275.440338 511.626465,282.087189 
	C499.289490,282.750397 487.420593,283.353180 475.556946,284.045105 
	C474.333374,284.116486 473.140778,284.718933 471.933807,285.074982 
	C471.933807,285.074982 471.975952,284.964172 471.614288,284.897583 
	C471.194183,285.249329 471.135773,285.667694 471.077332,286.086029 
	C471.077332,286.086029 471.011353,286.175537 471.098816,286.075836 
	C471.186310,285.976135 471.120789,285.678894 470.712433,285.376526 
	C468.638855,285.100250 466.973602,285.126373 465.093048,284.930634 
	C463.169434,284.977020 461.461151,285.245270 459.305695,285.553650 
	C454.570496,285.718018 450.282471,285.842285 445.625305,285.880432 
	C444.505157,285.855560 443.754150,285.916840 442.670837,285.760681 
	C441.686981,285.435608 441.029846,285.207733 440.384827,285.237976 
	C426.305267,285.897980 412.225067,286.550903 398.152618,287.340942 
	C397.076202,287.401367 396.056396,288.470398 395.010284,289.070618 
	C395.010284,289.070618 395.004639,289.005310 394.583374,288.859131 
	C382.913849,289.057648 371.667450,289.523285 360.416534,289.695038 
	C354.931671,289.778809 349.438477,289.314270 343.703369,288.878113 
	C341.960815,287.960114 340.528748,286.996552 338.955170,286.611908 
	C333.590179,285.300415 333.026855,281.699585 333.891785,277.076233 
	C334.512421,273.758759 334.767975,270.373047 335.495667,266.765656 
	C337.490540,259.213043 339.255463,251.929550 340.824188,244.604019 
	C341.486084,241.513168 341.734436,238.333755 342.170746,235.194595 
	C343.553040,228.790588 344.843475,222.365051 346.338440,215.987442 
	C348.795166,205.506668 351.195709,195.006470 353.977417,184.610107 
	C356.213867,176.251648 359.532959,168.156219 361.382751,159.727066 
	C364.268188,146.578568 370.141937,134.414062 373.448578,121.505127 
	C377.740509,104.749916 383.363129,88.496941 389.193237,72.273369 
	C389.715881,70.819016 390.095520,69.313255 390.541565,67.831367 
	C389.985687,67.484795 389.429810,67.138214 388.873932,66.791641 
	C386.236908,69.941154 383.564514,73.061821 380.969452,76.245552 
	C373.100098,85.900055 364.970001,95.360611 357.494568,105.312180 
	C350.551727,114.554657 344.161896,124.227509 337.813477,133.897903 
	C329.181641,147.046661 319.977539,159.920654 312.559753,173.739609 
	C303.545685,190.532303 296.135468,208.185913 287.605988,225.900314 
	C284.788910,231.879974 282.207886,237.354797 280.074188,242.998734 
	C278.716431,246.590317 278.022644,250.432907 277.031067,254.162949 
	C275.334442,260.600067 273.637787,267.037170 271.538361,274.001221 
	C270.152557,276.296570 269.169495,278.065002 268.511292,279.249054 
	C261.121765,280.493286 254.103317,281.675049 246.653992,282.711578 
	C242.771042,282.929718 238.636353,280.204529 236.119476,284.799408 
	C233.532303,293.039825 230.956741,301.283875 228.354813,309.519623 
	C225.620850,318.173218 222.951431,326.848999 220.061279,335.450378 
	C219.137802,338.198853 217.600006,340.740875 216.106140,343.902588 
	C216.263321,344.970947 216.657623,345.514038 217.051926,346.057129 
	C217.051926,346.057129 216.946228,346.031311 217.084030,346.355469 
	C218.583511,347.099945 219.938766,347.858551 221.307938,347.884583 
	C229.047394,348.031708 236.790222,348.003174 244.531891,348.034485 
	C244.531891,348.034454 244.627777,347.937500 244.848099,348.383575 
	C248.865921,349.161163 252.663437,349.492676 256.480225,350.278687 
	C256.896179,353.947235 257.292816,357.161285 257.666260,360.819580 
	C257.759979,369.175964 257.876892,377.088043 257.833069,385.325348 
	C257.861572,390.709503 257.920380,395.778107 258.295227,400.823242 
	C258.481812,403.333832 259.247864,405.801422 259.768494,408.734924 
	C259.972900,411.805542 259.882965,414.486206 260.403656,417.042542 
	C261.659515,423.208344 263.200867,429.316010 264.627136,435.447113 
	C267.045959,445.495331 268.996002,455.685852 271.992706,465.558685 
	C276.577759,480.664612 281.292053,495.784332 287.059540,510.462830 
	C292.340454,523.902954 299.072235,536.774353 305.203857,549.877930 
	C306.991272,553.697693 308.913086,557.454529 310.967224,561.906616 
	C311.946777,562.925598 312.732391,563.278198 313.518005,563.630798 
	C313.320831,561.762085 313.123688,559.893372 312.926575,558.024658 
	C312.926575,558.024658 312.994415,558.031738 313.235046,557.772705 
	C313.425079,556.760498 313.374451,556.007202 313.340271,554.829468 
	C313.383270,552.990479 313.409790,551.575928 313.616394,549.818665 
	C313.673859,546.930847 313.551300,544.385803 313.417511,541.435425 
	C313.413483,539.407959 313.420654,537.785828 313.602844,535.967773 
	C313.660522,535.126221 313.543243,534.480530 313.405212,533.377319 
	C313.367615,525.257507 313.350677,517.595276 313.555420,509.593628 
	C313.615784,503.521820 313.454468,497.789398 313.313110,491.585175 
	C313.537750,480.875092 313.742401,470.636810 314.234894,460.262817 
	C314.689972,457.751099 314.857239,455.375061 315.088165,452.534180 
	C315.126434,445.580719 315.101044,439.092163 315.075684,432.603607 
	C315.075684,432.603607 314.986694,432.337494 315.264465,431.873535 
	C316.375885,419.272766 317.209564,407.135986 318.154053,394.595795 
	C319.064728,387.135132 319.975586,380.088104 320.631470,373.017456 
	C321.217987,366.694794 321.523315,360.346008 321.952698,354.008759 
	C322.086395,344.724243 322.153320,344.618286 331.395508,342.179993 
	C333.300262,341.677460 335.250977,341.349152 338.050903,340.972046 
	C351.562164,340.964630 364.203308,340.961945 376.843781,340.870117 
	C382.306793,340.830444 387.768463,340.606659 393.661377,340.465851 
	C405.099060,340.307739 416.106171,340.150299 427.113251,339.992859 
	C427.113251,339.992859 427.037750,339.991241 427.106445,340.363190 
	C428.822906,340.835785 430.470673,340.936401 432.118439,341.037018 
	C432.302826,341.032959 432.487213,341.028931 433.244873,341.280640 
	C441.210510,341.738586 448.602905,341.940826 456.457947,342.176270 
	C467.045197,342.478027 477.177490,342.589081 487.291077,343.083099 
	C492.171295,343.321533 497.016327,344.280548 501.877289,344.913269 
	C501.877289,344.913239 502.085297,344.938843 502.262054,345.032593 
	C502.608429,345.269745 502.695557,345.452393 502.700195,345.674316 
	C502.754486,347.357117 502.808807,349.039917 502.650085,351.475891 
	C501.118835,359.676910 499.646881,367.101929 498.535736,374.580505 
	C497.776825,379.688293 497.521423,384.870941 497.040955,390.020111 
	C495.674255,400.791840 494.277344,411.559845 492.949554,422.336365 
	C491.663818,432.771271 490.470215,443.217529 489.182953,453.652222 
	C488.965332,455.416229 488.478607,457.147003 487.743347,459.536560 
	C486.742676,462.714386 485.858582,465.216095 485.530670,467.788727 
	C483.960236,480.108643 482.540405,492.447815 481.067047,504.780121 
	C481.040741,508.868958 481.014435,512.957764 480.608887,517.622192 
	C479.635651,520.259827 478.826477,522.286865 478.484650,524.389954 
	C476.948547,533.841003 475.545227,543.313782 474.093994,552.778687 
	C471.040405,557.116821 468.495941,561.952820 464.834686,565.696716 
	C455.095490,575.655823 444.865082,585.133972 434.850067,594.824097 
	C430.004974,599.512024 425.204926,604.246460 420.060516,609.313843 
	C419.222595,609.972595 418.708588,610.277344 418.194611,610.582153 
	C418.194611,610.582153 418.029205,611.003113 417.931152,611.440308 
	C413.933899,615.150879 410.034729,618.424255 406.135559,621.697571 
	C406.135559,621.697571 406.148590,622.021179 405.816528,622.296631 
	C404.963196,622.712891 404.441925,622.853760 403.920654,622.994629 
	C403.920654,622.994629 403.934448,622.911743 403.910095,623.223389 
	C403.231781,624.034668 402.577850,624.534302 401.923889,625.033936 
	C401.923889,625.033936 401.919128,624.929260 401.881165,625.222290 
	C401.205017,626.019287 400.566803,626.523193 399.928589,627.027100 
	C399.928589,627.027100 399.933014,626.930420 399.843323,627.242432 
	C398.581055,628.311829 397.408508,629.069153 396.235931,629.826477 
	C396.235931,629.826477 396.230743,630.200073 396.100830,630.690918 
	C391.407928,631.663635 386.845245,632.562195 382.281921,632.565430 
	C296.320740,632.626038 210.359451,632.549011 124.398338,632.639221 
	C119.478157,632.644409 115.874168,631.148010 112.599800,627.541626 
	C109.793091,624.450256 106.333527,621.951660 103.162704,619.190918 
z"/>
<path fill="#C9D7D4" opacity="1.000000" stroke="none" 
	d="
M103.312813,619.488281 
	C106.333527,621.951660 109.793091,624.450256 112.599800,627.541626 
	C115.874168,631.148010 119.478157,632.644409 124.398338,632.639221 
	C210.359451,632.549011 296.320740,632.626038 382.281921,632.565430 
	C386.845245,632.562195 391.407928,631.663635 395.914124,630.696899 
	C394.479340,633.110779 392.298492,634.093811 389.006073,634.090332 
	C299.872650,633.994995 210.739059,634.032471 121.605881,633.857178 
	C118.830704,633.851746 115.537483,632.433228 113.402260,630.603760 
	C109.710037,627.440186 106.737419,623.436768 103.312813,619.488281 
z"/>
<path fill="#538777" opacity="1.000000" stroke="none" 
	d="
M489.432281,32.133904 
	C488.825714,32.676708 487.774414,33.657658 486.764374,33.616840 
	C464.656738,32.723400 442.552979,31.731749 420.451019,30.704697 
	C418.516937,30.614822 416.600281,30.149818 414.500122,29.572676 
	C430.051453,29.504053 445.784668,29.517805 461.502472,30.017370 
	C470.683319,30.309168 479.839478,31.377291 489.432281,32.133904 
z"/>
<path fill="#91B2A8" opacity="1.000000" stroke="none" 
	d="
M125.224457,137.059555 
	C123.397446,146.973465 121.514984,156.877563 119.760910,166.804352 
	C118.349411,174.792374 117.132195,182.814606 115.741760,190.806519 
	C115.376953,192.903366 114.688728,194.943909 114.012283,197.332916 
	C114.687447,191.814316 115.446892,185.965256 116.324211,180.133911 
	C117.481834,172.439575 118.603630,164.736084 119.981674,157.079865 
	C121.145233,150.615250 122.652084,144.212402 124.344093,137.398407 
	C124.862267,137.029572 125.043358,137.044556 125.224457,137.059555 
z"/>
<path fill="#91B2A8" opacity="1.000000" stroke="none" 
	d="
M69.060898,494.969086 
	C68.800911,501.206573 68.801895,507.468353 68.223381,513.676147 
	C67.205582,524.597778 65.855629,535.489075 64.583656,546.385925 
	C64.412636,547.851013 63.886982,549.274780 63.292458,550.536377 
	C63.000336,548.473511 62.941315,546.591797 62.882294,544.710144 
	C63.223877,538.335754 63.183182,531.911072 64.011871,525.600708 
	C64.884445,518.956116 66.649673,512.432434 67.902489,505.832703 
	C68.532692,502.512817 68.891617,499.141449 69.200287,495.368286 
	C69.027367,494.943176 69.060890,494.969086 69.060898,494.969086 
z"/>
<path fill="#85AB9F" opacity="1.000000" stroke="none" 
	d="
M89.059540,348.637024 
	C86.840767,365.974213 84.473099,383.625702 81.764725,401.672577 
	C81.424034,402.067963 81.176369,402.009277 81.176376,402.009277 
	C80.768639,401.041351 79.899117,400.008331 80.024918,399.115570 
	C81.222427,390.617157 82.441315,382.116241 83.948425,373.668549 
	C85.424004,365.397614 87.242607,357.187897 89.059540,348.637024 
z"/>
<path fill="#82A89C" opacity="1.000000" stroke="none" 
	d="
M343.949036,289.097931 
	C349.438477,289.314270 354.931671,289.778809 360.416534,289.695038 
	C371.667450,289.523285 382.913849,289.057648 394.615906,288.863159 
	C393.899994,289.684265 392.748596,290.902832 391.557739,290.942657 
	C377.516632,291.412262 363.470245,291.742523 349.423157,291.992584 
	C347.882050,292.020020 346.328003,291.320190 344.325684,290.587097 
	C343.897278,289.843689 343.923157,289.470825 343.949036,289.097931 
z"/>
<path fill="#A6C0B8" opacity="1.000000" stroke="none" 
	d="
M481.255005,504.468506 
	C482.540405,492.447815 483.960236,480.108643 485.530670,467.788727 
	C485.858582,465.216095 486.742676,462.714386 487.497192,459.933136 
	C486.416046,472.196838 485.304169,484.718018 483.916077,497.208557 
	C483.651764,499.586914 482.295471,501.843872 481.255005,504.468506 
z"/>
<path fill="#91B2A8" opacity="1.000000" stroke="none" 
	d="
M81.171280,402.412384 
	C81.176369,402.009277 81.424034,402.067963 81.484039,402.048096 
	C80.098396,414.654419 78.678223,427.283630 77.160728,439.901184 
	C77.033661,440.957733 76.251801,441.935547 75.567703,443.147949 
	C76.208855,434.439270 76.846123,425.505432 77.989868,416.636902 
	C78.591644,411.970795 80.078819,407.418945 81.171280,402.412384 
z"/>
<path fill="#7CA59A" opacity="1.000000" stroke="none" 
	d="
M393.230743,340.466522 
	C387.768463,340.606659 382.306793,340.830444 376.843781,340.870117 
	C364.203308,340.961945 351.562164,340.964630 338.451355,340.993652 
	C338.754913,340.475861 339.522491,339.534760 340.302887,339.523987 
	C356.617401,339.298492 372.933350,339.178253 389.867676,339.342041 
	C391.401154,339.919983 392.315948,340.193268 393.230743,340.466522 
z"/>
<path fill="#B1C8C1" opacity="1.000000" stroke="none" 
	d="
M111.680305,211.026093 
	C109.616188,223.170822 107.552063,235.315536 105.059387,247.724091 
	C104.630836,247.987930 104.176033,247.975861 104.176033,247.975861 
	C105.416534,240.817810 106.722862,233.670288 107.868233,226.497040 
	C108.397575,223.181808 108.563713,219.810074 108.991898,216.476486 
	C109.193130,214.909882 109.624550,213.372864 110.307373,211.420471 
	C111.002167,211.021042 111.341232,211.023575 111.680305,211.026093 
z"/>
<path fill="#9BB8AF" opacity="1.000000" stroke="none" 
	d="
M102.690887,258.914337 
	C101.530510,269.259644 100.118317,279.838470 98.476311,290.381470 
	C97.857086,294.357361 96.706017,298.250427 95.541420,302.348053 
	C96.163635,295.944977 96.883598,289.349060 97.960625,282.811920 
	C99.265274,274.893188 100.871765,267.024139 102.690887,258.914337 
z"/>
<path fill="#538777" opacity="1.000000" stroke="none" 
	d="
M395.478180,289.039001 
	C396.056396,288.470398 397.076202,287.401367 398.152618,287.340942 
	C412.225067,286.550903 426.305267,285.897980 440.384827,285.237976 
	C441.029846,285.207733 441.686981,285.435608 442.668701,286.045410 
	C442.966827,286.734497 442.934723,286.921509 442.902618,287.108459 
	C432.575714,287.699554 422.252686,288.375580 411.920288,288.846497 
	C406.604156,289.088745 401.271362,288.965515 395.478180,289.039001 
z"/>
<path fill="#91B2A8" opacity="1.000000" stroke="none" 
	d="
M497.360901,389.793060 
	C497.521423,384.870941 497.776825,379.688293 498.535736,374.580505 
	C499.646881,367.101929 501.118835,359.676910 502.491760,351.959473 
	C501.679657,361.709198 500.920380,371.739868 499.873932,381.740448 
	C499.596039,384.396393 498.435944,386.959991 497.360901,389.793060 
z"/>
<path fill="#85AB9F" opacity="1.000000" stroke="none" 
	d="
M321.647980,354.264221 
	C321.523315,360.346008 321.217987,366.694794 320.631470,373.017456 
	C319.975586,380.088104 319.064728,387.135132 317.845764,394.581177 
	C317.015320,394.964996 316.603943,394.960083 316.192596,394.955139 
	C317.213745,386.138245 318.184235,377.315094 319.276550,368.507019 
	C319.856384,363.831085 320.647522,359.181274 321.647980,354.264221 
z"/>
<path fill="#91B2A8" opacity="1.000000" stroke="none" 
	d="
M474.366028,552.567078 
	C475.545227,543.313782 476.948547,533.841003 478.484650,524.389954 
	C478.826477,522.286865 479.635651,520.259827 480.563599,518.083923 
	C480.127106,529.671448 480.327942,541.549622 474.366028,552.567078 
z"/>
<path fill="#668C7F" opacity="1.000000" stroke="none" 
	d="
M364.499542,26.041677 
	C357.774536,26.305099 350.572052,26.884211 343.396484,26.647112 
	C332.819946,26.297636 322.262604,25.366707 311.397095,24.402391 
	C312.156525,23.742941 313.236969,22.987183 314.272186,23.044743 
	C324.135681,23.593161 333.989594,24.310743 343.850220,24.915203 
	C350.574921,25.327429 357.305908,25.636915 364.499542,26.041677 
z"/>
<path fill="#9BB8AF" opacity="1.000000" stroke="none" 
	d="
M472.401489,284.993622 
	C473.140778,284.718933 474.333374,284.116486 475.556946,284.045105 
	C487.420593,283.353180 499.289490,282.750397 511.896118,282.128052 
	C512.998047,282.115845 513.360657,282.097748 513.723328,282.079651 
	C510.538452,283.083527 507.376862,284.852692 504.164429,284.950439 
	C493.742706,285.267487 483.302368,284.971924 472.401489,284.993622 
z"/>
<path fill="#75A194" opacity="1.000000" stroke="none" 
	d="
M513.729370,281.671997 
	C513.360657,282.097748 512.998047,282.115845 512.365723,282.093079 
	C513.438538,275.440338 514.774109,268.827057 516.125549,262.217041 
	C517.146484,257.223450 518.187622,252.233994 519.641541,247.214752 
	C520.336121,247.448486 520.608887,247.710175 520.881714,247.971863 
	C518.499634,259.069336 516.117554,270.166809 513.729370,281.671997 
z"/>
<path fill="#A6C0B8" opacity="1.000000" stroke="none" 
	d="
M125.426636,136.761749 
	C125.043358,137.044556 124.862267,137.029572 124.409012,136.999908 
	C125.052193,130.174500 125.696182,123.310944 127.007729,116.577408 
	C127.585159,113.612846 129.520111,110.912704 131.044861,107.799957 
	C129.376938,117.159592 127.502876,126.811775 125.426636,136.761749 
z"/>
<path fill="#B1C8C1" opacity="1.000000" stroke="none" 
	d="
M343.703369,288.878113 
	C343.923157,289.470825 343.897278,289.843689 343.897827,290.496094 
	C340.622345,289.397339 336.825897,288.640564 334.132690,286.497345 
	C329.930634,283.153412 331.763214,278.193237 332.623169,273.862183 
	C333.042877,271.748352 334.380432,269.816772 335.272644,267.389771 
	C335.242706,266.976837 335.186371,267.017761 335.186401,267.017761 
	C334.767975,270.373047 334.512421,273.758759 333.891785,277.076233 
	C333.026855,281.699585 333.590179,285.300415 338.955170,286.611908 
	C340.528748,286.996552 341.960815,287.960114 343.703369,288.878113 
z"/>
<path fill="#538777" opacity="1.000000" stroke="none" 
	d="
M280.947998,22.624836 
	C267.642395,22.495712 254.117050,21.987391 240.552277,21.279606 
	C241.647278,20.765181 242.781693,20.450220 243.916122,20.135258 
	C256.186829,20.838718 268.457550,21.542177 280.947998,22.624836 
z"/>
<path fill="#69988A" opacity="1.000000" stroke="none" 
	d="
M316.119812,395.382629 
	C316.603943,394.960083 317.015320,394.964996 317.734955,394.984558 
	C317.209564,407.135986 316.375885,419.272766 315.315247,431.742737 
	C315.727051,422.570038 316.467560,413.069153 316.937103,403.554901 
	C317.063477,400.994171 316.366211,398.392792 316.119812,395.382629 
z"/>
<path fill="#9BB8AF" opacity="1.000000" stroke="none" 
	d="
M335.495667,266.765656 
	C335.186371,267.017761 335.242706,266.976837 335.269775,266.990875 
	C336.855408,258.389038 338.364471,249.763641 340.012512,241.164917 
	C340.359863,239.352661 341.217072,237.638138 342.005066,235.536591 
	C341.734436,238.333755 341.486084,241.513168 340.824188,244.604019 
	C339.255463,251.929550 337.490540,259.213043 335.495667,266.765656 
z"/>
<path fill="#9BB8AF" opacity="1.000000" stroke="none" 
	d="
M528.355957,203.780212 
	C528.500916,200.186874 528.702271,196.306015 529.460327,192.537125 
	C530.568115,187.029633 532.075500,181.602524 533.504089,175.879425 
	C533.805847,184.457916 532.506042,193.004303 528.774109,201.108490 
	C528.459290,201.792252 528.686035,202.725433 528.355957,203.780212 
z"/>
<path fill="#B1C8C1" opacity="1.000000" stroke="none" 
	d="
M147.099701,71.205063 
	C145.972519,72.841537 144.666870,74.549980 143.061386,75.902519 
	C138.853378,79.447517 135.823959,83.536819 135.426483,89.280113 
	C135.345047,90.457161 134.318481,91.568787 133.593643,92.950165 
	C133.738647,92.607414 134.313156,91.992241 134.252686,91.447586 
	C133.135300,81.384499 138.636902,75.442696 147.099701,71.205063 
z"/>
<path fill="#82A89C" opacity="1.000000" stroke="none" 
	d="
M247.084869,282.856781 
	C254.103317,281.675049 261.121765,280.493286 268.511292,279.249054 
	C269.169495,278.065002 270.152557,276.296570 271.445984,274.413025 
	C271.439850,274.847351 270.929230,275.366119 270.836639,275.951019 
	C269.888153,281.943573 268.594971,282.977173 262.708771,283.114441 
	C257.759094,283.229858 252.817062,283.673309 247.452377,283.734863 
	C247.054596,283.284729 247.071854,283.070923 247.084869,282.856781 
z"/>
<path fill="#85AB9F" opacity="1.000000" stroke="none" 
	d="
M277.386414,254.020233 
	C278.022644,250.432907 278.716431,246.590317 280.074188,242.998734 
	C282.207886,237.354797 284.788910,231.879974 287.492554,226.268097 
	C286.852020,229.523163 286.111877,232.923447 284.900879,236.146881 
	C282.659912,242.111725 280.143433,247.973068 277.386414,254.020233 
z"/>
<path fill="#69988A" opacity="1.000000" stroke="none" 
	d="
M501.889648,344.511536 
	C497.016327,344.280548 492.171295,343.321533 487.291077,343.083099 
	C477.177490,342.589081 467.045197,342.478027 456.469849,341.928314 
	C456.019135,341.647125 456.031494,341.151520 456.031494,341.151520 
	C470.033386,341.419464 484.036926,341.632324 498.034515,342.045868 
	C499.342865,342.084473 500.613770,343.391663 501.889648,344.511536 
z"/>
<path fill="#91B2A8" opacity="1.000000" stroke="none" 
	d="
M257.993835,385.000122 
	C257.876892,377.088043 257.759979,369.175964 257.769104,360.355530 
	C257.417114,356.239502 256.939026,353.031860 256.460938,349.824158 
	C252.663437,349.492676 248.865921,349.161163 244.897766,348.430298 
	C247.719543,348.022095 250.739029,348.263519 253.697861,347.943665 
	C257.778717,347.502502 259.298615,348.737671 259.150085,353.106506 
	C258.799896,363.405060 258.970215,373.721344 258.670776,384.496368 
	C258.411530,384.962280 257.993835,385.000122 257.993835,385.000122 
z"/>
<path fill="#91B2A8" opacity="1.000000" stroke="none" 
	d="
M264.565643,435.082153 
	C263.200867,429.316010 261.659515,423.208344 260.403656,417.042542 
	C259.882965,414.486206 259.972900,411.805542 259.865570,408.421173 
	C259.980438,407.444916 260.014923,407.228912 260.049377,407.012909 
	C261.052643,412.093353 262.181366,417.153168 263.019684,422.260681 
	C263.696289,426.383026 264.022491,430.562866 264.565643,435.082153 
z"/>
<path fill="#91B2A8" opacity="1.000000" stroke="none" 
	d="
M520.976562,247.567810 
	C520.608887,247.710175 520.336121,247.448486 519.903687,246.948990 
	C521.266663,238.472946 522.789246,230.234711 524.481323,221.755295 
	C523.457642,230.063995 522.264526,238.613876 520.976562,247.567810 
z"/>
<path fill="#7CA59A" opacity="1.000000" stroke="none" 
	d="
M244.247879,347.708496 
	C236.790222,348.003174 229.047394,348.031708 221.307938,347.884583 
	C219.938766,347.858551 218.583511,347.099945 217.095230,346.302246 
	C223.946121,345.927155 230.926300,345.822815 237.899429,345.998199 
	C239.931229,346.049316 241.942947,346.898895 244.247879,347.708496 
z"/>
<path fill="#75A194" opacity="1.000000" stroke="none" 
	d="
M243.476715,20.042864 
	C242.781693,20.450220 241.647278,20.765181 240.151428,21.152214 
	C233.491913,21.165852 227.183884,20.872402 220.899429,21.137573 
	C217.160217,21.295349 213.458084,22.331694 209.330841,22.992458 
	C212.579819,20.393322 216.461838,19.551971 221.098007,19.894787 
	C228.372711,20.432711 235.720490,19.982315 243.476715,20.042864 
z"/>
<path fill="#F9FFFF" opacity="1.000000" stroke="none" 
	d="
M393.661377,340.465851 
	C392.315948,340.193268 391.401154,339.919983 390.347198,339.390991 
	C402.373199,339.157806 414.538391,339.180359 426.908386,339.597900 
	C416.106171,340.150299 405.099060,340.307739 393.661377,340.465851 
z"/>
<path fill="#DCE8E1" opacity="1.000000" stroke="none" 
	d="
M313.333740,509.933014 
	C313.350677,517.595276 313.367615,525.257507 313.264526,533.757202 
	C313.238953,535.117615 313.333405,535.640686 313.427856,536.163696 
	C313.420654,537.785828 313.413483,539.407959 313.266327,541.878357 
	C313.229706,545.204895 313.333008,547.683105 313.436340,550.161377 
	C313.409790,551.575928 313.383270,552.990479 313.009613,554.854858 
	C312.459198,555.217773 312.255890,555.130859 312.052582,555.043945 
	C312.044983,540.352173 312.037384,525.660400 312.395172,510.525970 
	C312.951630,510.033234 313.142670,509.983124 313.333740,509.933014 
z"/>
<path fill="#538777" opacity="1.000000" stroke="none" 
	d="
M455.565094,341.082458 
	C456.031494,341.151520 456.019135,341.647125 456.007202,341.895081 
	C448.602905,341.940826 441.210510,341.738586 433.513062,341.348450 
	C440.504913,341.111481 447.801819,341.062469 455.565094,341.082458 
z"/>
<path fill="#69988A" opacity="1.000000" stroke="none" 
	d="
M259.997864,406.553284 
	C260.014923,407.228912 259.980438,407.444916 259.848877,407.974701 
	C259.247864,405.801422 258.481812,403.333832 258.295227,400.823242 
	C257.920380,395.778107 257.861572,390.709503 257.833069,385.325348 
	C257.993835,385.000122 258.411530,384.962280 258.621216,384.960022 
	C259.202759,392.003082 259.574585,399.048370 259.997864,406.553284 
z"/>
<path fill="#E9E9E9" opacity="1.000000" stroke="none" 
	d="
M313.947083,460.398529 
	C313.742401,470.636810 313.537750,480.875092 313.038940,491.500336 
	C312.553925,491.900482 312.363068,491.913666 312.172211,491.926849 
	C312.173828,479.374268 312.175476,466.821686 312.508484,454.096436 
	C312.839905,453.923767 312.927551,454.053680 313.129852,454.475861 
	C313.537140,456.731537 313.742096,458.565033 313.947083,460.398529 
z"/>
<path fill="#69988A" opacity="1.000000" stroke="none" 
	d="
M312.106110,492.394165 
	C312.363068,491.913666 312.553925,491.900482 313.018982,491.972137 
	C313.454468,497.789398 313.615784,503.521820 313.555420,509.593628 
	C313.142670,509.983124 312.951630,510.033234 312.464996,510.064880 
	C312.126282,504.318085 312.083130,498.589783 312.106110,492.394165 
z"/>
<path fill="#C9D7D4" opacity="1.000000" stroke="none" 
	d="
M406.317139,621.414673 
	C410.034729,618.424255 413.933899,615.150879 417.710938,611.491821 
	C416.139923,612.180298 414.578949,613.134033 413.266754,614.355225 
	C410.931335,616.528687 408.746521,618.864075 406.317139,621.414673 
z"/>
<path fill="#A6C0B8" opacity="1.000000" stroke="none" 
	d="
M72.973930,466.645905 
	C72.819008,470.307770 72.416115,474.259155 71.768860,478.598145 
	C71.524490,478.985809 71.169250,478.982269 71.169250,478.982269 
	C71.688156,474.966644 72.207062,470.951019 72.973930,466.645905 
z"/>
<path fill="#B1C8C1" opacity="1.000000" stroke="none" 
	d="
M465.308380,285.152466 
	C466.973602,285.126373 468.638855,285.100250 470.402100,285.671753 
	C470.341248,286.507233 470.182434,286.745087 470.023590,286.982971 
	C462.294067,287.211121 454.564575,287.439270 446.412201,287.449097 
	C445.991058,286.809418 445.992767,286.388000 445.994446,285.966553 
	C450.282471,285.842285 454.570496,285.718018 459.764801,285.675476 
	C462.216858,285.555664 463.762604,285.354065 465.308380,285.152466 
z"/>
<path fill="#75A194" opacity="1.000000" stroke="none" 
	d="
M246.653992,282.711578 
	C247.071854,283.070923 247.054596,283.284729 247.024445,283.659424 
	C243.655823,284.159607 240.295868,284.498566 236.527679,284.818451 
	C238.636353,280.204529 242.771042,282.929718 246.653992,282.711578 
z"/>
<path fill="#A6C0B8" opacity="1.000000" stroke="none" 
	d="
M111.790985,210.660553 
	C111.341232,211.023575 111.002167,211.021042 110.408783,211.013535 
	C110.841599,208.376785 111.528725,205.745010 112.233353,202.736160 
	C112.134460,205.004379 112.018066,207.649689 111.790985,210.660553 
z"/>
<path fill="#91B2A8" opacity="1.000000" stroke="none" 
	d="
M314.660950,432.824402 
	C315.101044,439.092163 315.126434,445.580719 314.834900,452.536194 
	C314.349243,453.007111 314.180450,453.011169 313.984192,452.987305 
	C313.956757,452.959320 313.901245,452.904053 313.901245,452.904053 
	C314.016235,446.284424 314.131226,439.664795 314.660950,432.824402 
z"/>
<path fill="#91B2A8" opacity="1.000000" stroke="none" 
	d="
M62.237755,565.988098 
	C62.223103,568.249817 62.208454,570.511475 62.221233,573.115845 
	C61.848808,571.215576 61.448952,568.972656 61.285652,566.357300 
	C61.522209,565.984863 61.880039,565.974121 61.880039,565.974121 
	C61.880039,565.974121 62.237755,565.988098 62.237755,565.988098 
z"/>
<path fill="#9BB8AF" opacity="1.000000" stroke="none" 
	d="
M103.991905,248.351349 
	C104.176033,247.975861 104.630836,247.987930 104.856850,248.013748 
	C104.633026,251.220917 104.183197,254.402267 103.413010,257.772156 
	C103.331032,254.882751 103.569405,251.804794 103.991905,248.351349 
z"/>
<path fill="#91B2A8" opacity="1.000000" stroke="none" 
	d="
M71.706467,482.016174 
	C71.380440,484.269745 71.054420,486.523346 70.287674,488.787048 
	C69.499878,488.495300 69.152809,488.193420 68.805725,487.891571 
	C68.854271,486.531952 68.902817,485.172333 69.304489,483.403809 
	C70.340569,482.668640 71.023521,482.342407 71.706467,482.016174 
z"/>
<path fill="#91B2A8" opacity="1.000000" stroke="none" 
	d="
M62.990486,552.999207 
	C62.950680,555.380493 62.910873,557.761841 62.518345,560.579468 
	C61.819626,561.011475 61.473625,561.007141 61.127625,561.002869 
	C61.345314,558.579529 61.562996,556.156189 62.172436,553.365479 
	C62.564190,552.998169 62.990490,552.999207 62.990486,552.999207 
z"/>
<path fill="#A6C0B8" opacity="1.000000" stroke="none" 
	d="
M68.475723,488.118835 
	C69.152809,488.193420 69.499878,488.495300 70.062759,489.069031 
	C70.151237,491.072662 70.023918,492.804443 69.478745,494.752655 
	C69.060890,494.969086 69.027367,494.943176 69.013512,494.968079 
	C68.715012,492.777344 68.430359,490.561707 68.475723,488.118835 
z"/>
<path fill="#69988A" opacity="1.000000" stroke="none" 
	d="
M312.961975,558.372559 
	C313.123688,559.893372 313.320831,561.762085 313.518005,563.630798 
	C312.732391,563.278198 311.946777,562.925598 311.098358,562.248657 
	C311.689484,560.856445 312.343475,559.788391 312.961975,558.372559 
z"/>
<path fill="#9BB8AF" opacity="1.000000" stroke="none" 
	d="
M61.033531,561.411377 
	C61.473625,561.007141 61.819626,561.011475 62.425148,561.016235 
	C62.643917,562.414001 62.603161,563.811279 62.400078,565.598267 
	C62.237755,565.988098 61.880039,565.974121 61.880039,565.974121 
	C61.880039,565.974121 61.522209,565.984863 61.342934,565.988159 
	C61.088921,564.600952 61.014179,563.210388 61.033531,561.411377 
z"/>
<path fill="#9BB8AF" opacity="1.000000" stroke="none" 
	d="
M63.085812,552.724670 
	C62.990490,552.999207 62.564190,552.998169 62.351044,552.996826 
	C62.137001,550.382568 62.136097,547.769653 62.508743,544.933472 
	C62.941315,546.591797 63.000336,548.473511 63.106720,550.825684 
	C63.163105,551.680847 63.172119,552.065491 63.085812,552.724670 
z"/>
<path fill="#C9D7D4" opacity="1.000000" stroke="none" 
	d="
M396.485291,629.597412 
	C397.408508,629.069153 398.581055,628.311829 399.891693,627.241943 
	C398.931396,627.742310 397.833008,628.555359 396.485291,629.597412 
z"/>
<path fill="#A6C0B8" opacity="1.000000" stroke="none" 
	d="
M71.792267,481.690674 
	C71.023521,482.342407 70.340569,482.668640 69.370300,483.000488 
	C69.506165,482.081329 69.929352,481.156555 70.867386,480.120544 
	C71.382225,480.009369 71.837952,480.024872 71.837952,480.024872 
	C71.851326,480.471649 71.864693,480.918396 71.792267,481.690674 
z"/>
<path fill="#9BB8AF" opacity="1.000000" stroke="none" 
	d="
M445.625305,285.880432 
	C445.992767,286.388000 445.991058,286.809418 446.002502,287.546631 
	C445.086670,287.822113 444.157715,287.781799 443.065674,287.424988 
	C442.934723,286.921509 442.966827,286.734497 443.001038,286.262817 
	C443.754150,285.916840 444.505157,285.855560 445.625305,285.880432 
z"/>
<path fill="#7CA59A" opacity="1.000000" stroke="none" 
	d="
M431.903931,340.707031 
	C430.470673,340.936401 428.822906,340.835785 427.108215,340.325439 
	C428.590637,340.069519 430.140045,340.223267 431.903931,340.707031 
z"/>
<path fill="#7CA59A" opacity="1.000000" stroke="none" 
	d="
M216.909073,345.800964 
	C216.657623,345.514038 216.263321,344.970947 215.968796,344.239166 
	C216.301117,344.548584 216.533676,345.046692 216.909073,345.800964 
z"/>
<path fill="#C9D7D4" opacity="1.000000" stroke="none" 
	d="
M402.262573,625.041870 
	C402.577850,624.534302 403.231781,624.034668 403.951904,623.227234 
	C403.545807,623.629578 403.073517,624.339722 402.262573,625.041870 
z"/>
<path fill="#C9D7D4" opacity="1.000000" stroke="none" 
	d="
M400.264832,627.021118 
	C400.566803,626.523193 401.205017,626.019287 401.933289,625.216858 
	C401.549286,625.617310 401.075165,626.316284 400.264832,627.021118 
z"/>
<path fill="#91B2A8" opacity="1.000000" stroke="none" 
	d="
M311.950195,555.401733 
	C312.255890,555.130859 312.459198,555.217773 312.993164,555.279297 
	C313.374451,556.007202 313.425079,556.760498 313.206268,557.791077 
	C312.573822,557.298767 312.210815,556.529175 311.950195,555.401733 
z"/>
<path fill="#C9D7D4" opacity="1.000000" stroke="none" 
	d="
M418.313568,610.400330 
	C418.708588,610.277344 419.222595,609.972595 419.717438,609.419250 
	C419.276398,609.520020 418.854462,609.869263 418.313568,610.400330 
z"/>
<path fill="#C9D7D4" opacity="1.000000" stroke="none" 
	d="
M404.201385,623.053406 
	C404.441925,622.853760 404.963196,622.712891 405.662292,622.346069 
	C405.387421,622.450806 404.934784,622.781494 404.201385,623.053406 
z"/>
<path fill="#75A194" opacity="1.000000" stroke="none" 
	d="
M208.795197,23.056665 
	C208.771164,23.302578 208.530594,23.681803 208.103882,24.008059 
	C208.138062,23.700052 208.358368,23.445015 208.795197,23.056665 
z"/>
<path fill="#9BB8AF" opacity="1.000000" stroke="none" 
	d="
M470.303711,287.024689 
	C470.182434,286.745087 470.341248,286.507233 470.810425,285.974121 
	C471.120789,285.678894 471.186310,285.976135 471.051331,286.046936 
	C470.805542,286.433929 470.694702,286.750183 470.303711,287.024689 
z"/>
<path fill="#91B2A8" opacity="1.000000" stroke="none" 
	d="
M71.911942,479.765991 
	C71.837952,480.024872 71.382225,480.009369 71.155075,479.989258 
	C70.953781,479.801208 70.979645,479.633209 71.087379,479.223724 
	C71.169250,478.982269 71.524490,478.985809 71.701263,478.982666 
	C71.914009,479.155396 71.949974,479.331238 71.911942,479.765991 
z"/>
<path fill="#91B2A8" opacity="1.000000" stroke="none" 
	d="
M312.891296,453.864624 
	C312.924194,453.432129 313.080811,453.159302 313.656921,452.945557 
	C313.901245,452.904053 313.956757,452.959320 313.898193,453.247253 
	C313.535614,453.708008 313.231598,453.880859 312.927551,454.053680 
	C312.927551,454.053680 312.839905,453.923767 312.891296,453.864624 
z"/>
<path fill="#69988A" opacity="1.000000" stroke="none" 
	d="
M502.630981,345.560486 
	C502.695557,345.452393 502.608429,345.269745 502.284607,345.134949 
	C502.271851,345.247955 502.415619,345.348999 502.630981,345.560486 
z"/>
<path fill="#9BB8AF" opacity="1.000000" stroke="none" 
	d="
M471.339600,286.011383 
	C471.135773,285.667694 471.194183,285.249329 471.670105,284.917572 
	C471.925659,285.315002 471.763763,285.625885 471.339600,286.011383 
z"/>
<path fill="#69988A" opacity="1.000000" stroke="none" 
	d="
M313.129852,454.475861 
	C313.231598,453.880859 313.535614,453.708008 313.925659,453.275208 
	C314.180450,453.011169 314.349243,453.007111 314.771240,453.001068 
	C314.857239,455.375061 314.689972,457.751099 314.234924,460.262817 
	C313.742096,458.565033 313.537140,456.731537 313.129852,454.475861 
z"/>
<path fill="#69988A" opacity="1.000000" stroke="none" 
	d="
M256.480225,350.278687 
	C256.939026,353.031860 257.417114,356.239502 257.792328,359.911255 
	C257.292816,357.161285 256.896179,353.947235 256.480225,350.278687 
z"/>
<path fill="#538777" opacity="1.000000" stroke="none" 
	d="
M465.093048,284.930603 
	C463.762604,285.354065 462.216858,285.555664 460.211975,285.635376 
	C461.461151,285.245270 463.169434,284.977020 465.093048,284.930603 
z"/>
<path fill="#69988A" opacity="1.000000" stroke="none" 
	d="
M313.616394,549.818665 
	C313.333008,547.683105 313.229706,545.204895 313.277557,542.283691 
	C313.551300,544.385803 313.673859,546.930847 313.616394,549.818665 
z"/>
<path fill="#69988A" opacity="1.000000" stroke="none" 
	d="
M313.602844,535.967773 
	C313.333405,535.640686 313.238953,535.117615 313.285217,534.214722 
	C313.543243,534.480530 313.660522,535.126221 313.602844,535.967773 
z"/>
</svg>