<?xml version="1.0" encoding="UTF-8"?>
<svg version="1.1" xmlns="http://www.w3.org/2000/svg" width="96" height="96">
<path d="M0 0 C3.00317383 0.66748047 3.00317383 0.66748047 5.00317383 2.29248047 C6.46059003 5.75384394 6.3063562 7.10087609 5.00317383 10.66748047 C2.52585297 13.55074886 -0.16968179 16.13013448 -2.99682617 18.66748047 C-2.32393555 19.18697266 -1.65104492 19.70646484 -0.95776367 20.24169922 C2.6335915 23.18395722 6.02345749 26.27276188 9.37817383 29.47998047 C10.03172852 30.07101563 10.6852832 30.66205078 11.35864258 31.27099609 C15.97828081 35.73016268 15.97828081 35.73016268 16.10473633 40.49169922 C15.00317383 43.66748047 15.00317383 43.66748047 12.00317383 45.66748047 C9.69067383 46.15966797 9.69067383 46.15966797 7.00317383 45.66748047 C4.8099248 43.76005379 2.93457648 41.93467072 1.00317383 39.79248047 C-3.4301935 34.94278169 -6.34446917 31.87063455 -13.22729492 31.48779297 C-18.98778271 33.29055702 -22.2301217 37.22723401 -26.30932617 41.54248047 C-27.11950195 42.37134766 -27.92967773 43.20021484 -28.7644043 44.05419922 C-34.73695728 49.81377203 -34.73695728 49.81377203 -37.55932617 57.35498047 C-37.37348561 63.04376642 -33.81946183 65.8251743 -29.99682617 69.66748047 C-29.05524725 70.6964363 -28.11939145 71.73064813 -27.18823242 72.76904297 C-20.98128718 80.43401967 -20.98128718 80.43401967 -12.30932617 84.22998047 C-6.70305349 84.09649779 -3.74853443 80.44938356 0.00317383 76.66748047 C5.97715303 70.84506099 5.97715303 70.84506099 10.25317383 70.10498047 C13.00317383 70.66748047 13.00317383 70.66748047 14.94067383 71.72998047 C16.70590098 74.94892409 15.87842391 77.17724141 15.00317383 80.66748047 C13.22393243 83.22942997 11.08597944 85.28985118 8.81567383 87.41748047 C7.96779297 88.26246094 7.96779297 88.26246094 7.1027832 89.12451172 C1.36697634 94.68292249 -3.32869712 97.09228613 -11.49682617 97.04248047 C-12.76526367 97.05021484 -14.03370117 97.05794922 -15.34057617 97.06591797 C-27.63462772 95.72618158 -38.87051245 81.95282651 -46.44213867 72.94873047 C-50.48307736 67.32134919 -51.95148686 60.48723433 -50.99682617 53.66748047 C-48.74674547 44.94845501 -43.72079448 39.49646983 -37.44604492 33.28466797 C-36.50365956 32.33568458 -35.5620899 31.38589054 -34.62129211 30.43533325 C-32.65992503 28.46070335 -30.68803792 26.49741317 -28.70800781 24.54150391 C-26.17711666 22.03934035 -23.67694631 19.50878037 -21.1840086 16.96887016 C-18.7879363 14.53656767 -16.36589149 12.13082054 -13.94604492 9.72216797 C-12.60820198 8.35836502 -12.60820198 8.35836502 -11.24333191 6.9670105 C-4.24455849 0.12380789 -4.24455849 0.12380789 0 0 Z " fill="#2A2824" transform="translate(57.996826171875,-0.66748046875)"/>
<path d="M0 0 C0.33 0 0.66 0 1 0 C1 1.65 1 3.3 1 5 C2.08667969 4.86078125 2.08667969 4.86078125 3.1953125 4.71875 C10.97750323 4.13767976 10.97750323 4.13767976 13.8203125 6.53515625 C14.79727407 7.92051979 15.7269603 9.34012295 16.61328125 10.78515625 C18.0258281 13.0412522 19.51842592 14.66565325 21.4375 16.5 C24.65008649 19.59861446 27.55026948 22.88571767 30.421875 26.30078125 C33.06443355 29.14611038 34.8343943 29.97473811 38.6875 30.5625 C44.29377269 30.42901732 47.24829174 26.7819031 51 23 C56.9739792 17.17758052 56.9739792 17.17758052 61.25 16.4375 C64 17 64 17 65.9375 18.0625 C67.70272715 21.28144362 66.87525008 23.50976094 66 27 C64.2207586 29.5619495 62.08280561 31.62237071 59.8125 33.75 C59.24724609 34.31332031 58.68199219 34.87664062 58.09960938 35.45703125 C52.36380251 41.01544202 47.66812905 43.42480566 39.5 43.375 C38.2315625 43.38273437 36.963125 43.39046875 35.65625 43.3984375 C23.36219845 42.05870111 12.12631372 28.28534604 4.5546875 19.28125 C0.26446507 13.30671802 -0.24843875 7.08050438 0 0 Z " fill="#131006" transform="translate(7,53)"/>
<path d="M0 0 C1.40166664 -0.00956978 1.40166664 -0.00956978 2.83164978 -0.01933289 C3.84828201 -0.02044571 4.86491425 -0.02155853 5.91235352 -0.02270508 C6.94940933 -0.02603348 7.98646515 -0.02936188 9.0549469 -0.03279114 C11.25326085 -0.03786493 13.45158254 -0.04019932 15.64990234 -0.04003906 C19.02332177 -0.04222471 22.39641394 -0.06037347 25.76977539 -0.0793457 C27.90063364 -0.08227962 30.03149345 -0.08426443 32.16235352 -0.08520508 C33.17696152 -0.09239059 34.19156952 -0.09957611 35.23692322 -0.10697937 C36.17451981 -0.10390274 37.11211639 -0.10082611 38.078125 -0.09765625 C38.90561752 -0.09908127 39.73311005 -0.10050629 40.5856781 -0.10197449 C42.60375977 0.14526367 42.60375977 0.14526367 44.60375977 2.14526367 C44.85375977 5.64526367 44.85375977 5.64526367 44.60375977 9.14526367 C42.16801871 11.58100472 41.54051739 11.40078101 38.20166016 11.41992188 C37.2905397 11.42945389 36.37941925 11.4389859 35.44068909 11.44880676 C34.45422897 11.44789536 33.46776886 11.44698395 32.45141602 11.44604492 C31.44034286 11.45033005 30.42926971 11.45461517 29.38755798 11.45903015 C27.24649811 11.46478028 25.10541869 11.46526871 22.96435547 11.4609375 C19.68301134 11.45777979 16.4025703 11.48122081 13.12133789 11.5065918 C11.04386507 11.50886489 8.96638982 11.50956824 6.88891602 11.50854492 C5.90448013 11.51775467 4.92004425 11.52696442 3.90577698 11.53645325 C2.99150436 11.53022446 2.07723175 11.52399567 1.13525391 11.51757812 C-0.07148232 11.51852226 -0.07148232 11.51852226 -1.30259705 11.51948547 C-3.94443183 11.04727885 -4.85784317 10.32677829 -6.39624023 8.14526367 C-5.83635382 0.02691071 -5.83635382 0.02691071 0 0 Z " fill="#9E9C9B" transform="translate(43.396240234375,51.854736328125)"/>
<path d="M0 0 C2.75 0.5625 2.75 0.5625 4.6875 1.625 C6.45272715 4.84394362 5.62525008 7.07226094 4.75 10.5625 C2.9707586 13.1244495 0.83280561 15.18487071 -1.4375 17.3125 C-2.00275391 17.87582031 -2.56800781 18.43914062 -3.15039062 19.01953125 C-8.88619749 24.57794202 -13.58187095 26.98730566 -21.75 26.9375 C-23.0184375 26.94523437 -24.286875 26.95296875 -25.59375 26.9609375 C-29.45218216 26.54046733 -31.92046621 25.50472805 -35.25 23.5625 C-34.651875 23.294375 -34.05375 23.02625 -33.4375 22.75 C-31.1459831 21.50603368 -29.7669063 20.68616882 -28.25 18.5625 C-27.99951364 15.43700983 -27.99951364 15.43700983 -28.25 12.5625 C-27.59 12.8925 -26.93 13.2225 -26.25 13.5625 C-20.93421553 14.30742221 -20.93421553 14.30742221 -16.19140625 12.2109375 C-14.13619408 10.39209476 -12.18273377 8.51078897 -10.25 6.5625 C-4.2760208 0.74008052 -4.2760208 0.74008052 0 0 Z " fill="#E4A21E" transform="translate(68.25,69.4375)"/>
<path d="M0 0 C4.46813771 1.40601005 7.24040915 4.64239478 10.58203125 7.8125 C11.84466797 8.91078125 11.84466797 8.91078125 13.1328125 10.03125 C19.5197883 15.83217359 19.5197883 15.83217359 19.83203125 20.75 C18.58203125 23.8125 18.58203125 23.8125 15.58203125 25.8125 C13.26953125 26.3046875 13.26953125 26.3046875 10.58203125 25.8125 C8.38878222 23.90507332 6.51343391 22.07969026 4.58203125 19.9375 C-0.10301272 14.69093696 -0.10301272 14.69093696 -6.41796875 11.8125 C-8.75004895 11.73603835 -11.08642753 11.72106701 -13.41796875 11.8125 C-11.44269352 9.45710307 -9.4357602 7.13152572 -7.41796875 4.8125 C-6.57234375 3.8225 -5.72671875 2.8325 -4.85546875 1.8125 C-2.41796875 -0.1875 -2.41796875 -0.1875 0 0 Z " fill="#E8AE39" transform="translate(54.41796875,19.1875)"/>
<path d="M0 0 C6.65686814 -0.0505916 13.31368694 -0.0856876 19.97070312 -0.10986328 C22.23667249 -0.11993859 24.50262881 -0.13359918 26.76855469 -0.15087891 C30.02021501 -0.17506011 33.27170387 -0.18646763 36.5234375 -0.1953125 C38.05005508 -0.21079636 38.05005508 -0.21079636 39.60751343 -0.22659302 C40.54833771 -0.22674408 41.48916199 -0.22689514 42.45849609 -0.22705078 C43.28900482 -0.231492 44.11951355 -0.23593323 44.97518921 -0.24050903 C47 0 47 0 49 2 C49 2.99 49 3.98 49 5 C32.17 5 15.34 5 -2 5 C-1.34 3.35 -0.68 1.7 0 0 Z " fill="#B2B0AF" transform="translate(39,52)"/>
</svg>
